<?xml version="1.0" encoding="utf-8"?>
<!-- Generator: Adobe Illustrator 16.0.0, SVG Export Plug-In . SVG Version: 6.00 Build 0)  -->
<!DOCTYPE svg PUBLIC "-//W3C//DTD SVG 1.1//EN" "http://www.w3.org/Graphics/SVG/1.1/DTD/svg11.dtd">
<svg version="1.1" xmlns="http://www.w3.org/2000/svg" xmlns:xlink="http://www.w3.org/1999/xlink" x="0px" y="0px"
	 width="400.25px" height="626.063px" viewBox="0 0 400.25 626.063" enable-background="new 0 0 400.25 626.063"
	 xml:space="preserve">
<g id="Layer_2" display="none">
	
		<image display="inline" overflow="visible" width="630" height="999" xlink:href="../../../../Users/andre/Desktop/aboutmepic.jpg"  transform="matrix(0.6422 0 0 0.6422 -2.168 0)">
	</image>
</g>
<g id="Layer_4">
	<g>
		<g>
			<path d="M245.265,281.671c0.405,0,0.384-1.328-0.033-1.328C244.826,280.343,244.848,281.671,245.265,281.671L245.265,281.671z"/>
		</g>
	</g>
	<g>
		<g>
			<path d="M248.975,315.026c-0.704-3.025-1.205-6.057-1.543-9.142c-0.257-2.343-0.195-4.712-0.772-7.006
				c-0.042-0.165-0.142-0.063-0.154,0.051c-0.646,5.439,0.725,11.504,1.985,16.778C248.691,316.548,249.07,315.437,248.975,315.026
				L248.975,315.026z"/>
		</g>
	</g>
	<g>
		<g>
			<path d="M31.088,392.438C18.5,405.864,9.207,421.831,5.65,440.004c-0.038,0.191-0.089,1.039,0.281,1.017
				c2.881-0.17,5.791-1.179,8.667-0.664c-0.094-0.341-0.188-0.681-0.282-1.021c-1.352,6.328-2.57,11.471,1.104,17.186
				c3.785,5.889,4.31,11.438,4.275,18.306c-0.022,4.422,0.103,8.686,1.103,13.003c0.044,0.189,0.238,0.486,0.423,0.239
				c1.519-2.021,3.098-3.988,4.694-5.949c2.609-3.205,2.349-1.338,3.223,1.602c0.708,2.381,2.284,5.604,5.074,6.018
				c2.04,0.303,3.809,0.097,5.83,0.818c2.364,0.845,4.41,3.103,6.032,4.876c3.287,3.594,5.602,8.091,7.581,12.503
				c0.034,0.075,0.119,0.217,0.225,0.203c2.114-0.274,1.773,0.271,1.824,2.774c0.003,0.148,0.062,0.745,0.33,0.707
				c9.016-1.292,19.085-0.377,27.594-3.836c0.976-0.396,10.453-4.794,10.449-4.721c-0.058,0.934,0.048,2.494,0.987,3.054
				c1.236,0.737,3.671-0.663,5.006-0.758c1.676-0.12,3.092-1.55,4.896-1.019c1.148,0.338,1.715,2.189,3.131,2.087
				c4.321-0.313,7.549-2.537,11.981-1.303c1.683,0.469,2.814,0.555,4.496,0.022c3.014-0.955,4.13,3.673,5.255,5.639
				c0.098,0.171,0.241,0.305,0.399,0.107c4.629-5.767,7.994-3.363,13.807-1.353c5.109,1.768,11.311,1.295,16.618,1.089
				c5.985-0.231,9.814-1.971,14.633-5.413c5.908-4.221,13.248-5.359,20.016-7.62c3.66-1.223,7.688-0.848,11.233-2.426
				c1.399-0.623,2.339-1.872,3.131-3.118c0.367-0.577,1.275-4.562,2.181-3.536c2.589,2.934,4.098-1.426,4.83-3.645
				c1.401-4.24-0.515-8.362-2.521-12.017c-0.107-0.196-0.146,0.195-0.113,0.279c0.428,1.142,0.851,2.286,1.269,3.432
				c0.188,2.826,0.375,5.652,0.563,8.479c-0.401,1.953-1.872,2.292-4.413,1.016c-0.174-0.339-0.388-0.129-0.459,0.148
				c-1.173,4.564-2.953,7.641-7.706,8.574c-3.137,0.616-6.217,0.812-9.274,1.853c-4.644,1.582-9.455,2.565-14.015,4.396
				c-4.147,1.665-7.324,5.002-11.405,6.811c-4.036,1.789-9.574,1.262-13.879,1.2c-4.766-0.068-9.246-0.438-13.685-2.284
				c-2.484-1.033-4.643-1.896-7.269-0.855c-0.631,0.25-3.694,3.483-4.295,2.447c-1.099-1.896-2.008-3.695-3.381-5.418
				c-0.065-0.081-0.154-0.127-0.251-0.068c-3.524,2.111-5.8,0.298-9.454,0.222c-3.786-0.079-7.078,3.613-10.48,0.471
				c-2.939-2.716-11.51,4.717-11.118-1.63c0.013-0.208-0.01-1.05-0.412-0.885c-6.246,2.563-11.561,6.48-18.439,7.261
				c-3.662,0.416-7.375,0.536-11.049,0.851c-1.785,0.152-3.564,0.35-5.344,0.555c-3.006,0.346-3.42,0.604-3.421-2.627
				c0-0.141-0.066-0.753-0.329-0.705c-2.904,0.521-3.961-4.105-5.274-6.349c-1.677-2.865-3.706-5.472-6.068-7.799
				c-1.935-1.907-4.22-3.331-6.917-3.706c-2.672-0.372-4.321,0-6.4-2.342c-1.692-1.905-2.13-5.53-2.787-7.966
				c-0.052-0.191-0.231-0.485-0.425-0.24c-1.168,1.482-2.353,2.949-3.544,4.414c-0.799,0.979-1.586,1.969-2.36,2.969
				c-1.603-1.252-2.158-2.938-1.667-5.059c-0.265-4.317,0.22-8.668-0.232-12.979c-0.366-3.492-0.992-6.537-2.802-9.57
				c-0.95-1.591-2.061-3.025-2.96-4.66c-2.076-3.771-0.365-9.085,0.487-13.079c0.056-0.26,0.089-0.954-0.282-1.021
				c-2.877-0.513-5.787,0.498-8.667,0.67c0.094,0.339,0.188,0.678,0.281,1.017c3.521-18.014,12.771-33.801,25.229-47.102
				C31.664,393.304,31.469,392.03,31.088,392.438L31.088,392.438z"/>
		</g>
	</g>
	<g>
		<g>
			<path d="M29.267,326.436c0.465,0,0.441-1.523-0.037-1.523C28.764,324.912,28.789,326.436,29.267,326.436L29.267,326.436z"/>
		</g>
	</g>
	<g>
		<g>
			<path d="M6.6,318.436c0.465,0,0.441-1.523-0.037-1.523C6.098,316.912,6.122,318.436,6.6,318.436L6.6,318.436z"/>
		</g>
	</g>
	<g>
		<g>
			<path d="M32.602,231.271c0.465,0,0.441-1.522-0.037-1.522C32.099,229.749,32.124,231.271,32.602,231.271L32.602,231.271z"/>
		</g>
	</g>
	<g>
		<g>
			<path d="M27.936,292.922c6.45-1.019,12.062-3.243,18.711-1.952c5.125,0.995,9.222,4.485,11.812,8.896
				c3.309,5.633,5.108,14.229,3.818,20.754c-0.097,0.488,0.401,1.771,0.608,0.773c1.438-6.929-0.264-15.378-3.197-21.663
				c-5.603-12.007-20.733-14.539-31.897-8.532C27.408,291.404,27.42,293.003,27.936,292.922L27.936,292.922z"/>
		</g>
	</g>
	<g>
		<g>
			<path d="M24.584,331.791c0.071,0,0.068-0.234-0.006-0.234C24.507,331.557,24.511,331.791,24.584,331.791L24.584,331.791z"/>
		</g>
	</g>
	<g>
		<g>
			<path d="M34.616,362.923c-0.686-1.483-6.729,0.704-7.955,0.961c-2.177,0.457-4.345,0.943-6.517,1.422
				c-2.82,0.622-1.38-5.144-1.271-6.791c0.017-0.252,0.016-0.78-0.307-0.854c-0.796-0.179-3.104-1.821-3.975-1.154
				c-1.779,1.364-2.353,4.525-5.262,3.669c-0.589-0.173-0.655,1.592-0.059,1.69c1.755,0.289,2.613-0.416,3.649-1.756
				c0.438-0.566,1.531-2.812,2.551-2.321c0.799,0.384,1.659,0.886,2.526,1.09c0.516,0.121-1.032,6.482,0.443,8.087
				c1.109,1.208,10.933-2.109,12.606-2.491C31.381,364.398,35.144,364.064,34.616,362.923L34.616,362.923z"/>
		</g>
	</g>
	<g>
		<g>
			<path d="M39.346,376.001c6.283-2.128,12.602-3.434,19.255-2.935c0.419,0.031,0.433-1.406-0.035-1.445
				c-6.757-0.563-13.104,0.699-19.411,3.065C38.789,374.824,38.885,376.156,39.346,376.001L39.346,376.001z"/>
		</g>
	</g>
	<g>
		<g>
			<path d="M38.308,385.089c-2.771-2.984,1.77-6.748,1.091-9.956c-0.729-3.445-5.325-5.558-5.287-9.127
				c0.006-0.538-0.382-0.519-0.392,0.01c-0.087,4.47,6.029,6.284,5.205,11c-0.549,3.142-3.448,5.752-0.733,8.583
				C38.36,385.774,38.419,385.209,38.308,385.089L38.308,385.089z"/>
		</g>
	</g>
	<g>
		<g>
			<path d="M86.371,237.817c-3.425-3.309-5.078-7.581-4.904-12.344c0.016-0.438-0.397-0.955-0.434-0.26
				c-0.276,5.229,1.248,10.001,5.096,13.656C86.5,239.221,86.614,238.053,86.371,237.817L86.371,237.817z"/>
		</g>
	</g>
	<g>
		<g>
			<path d="M122.933,237.007c0.406,0,0.384-1.328-0.032-1.328C122.495,235.679,122.516,237.007,122.933,237.007L122.933,237.007z"/>
		</g>
	</g>
	<g>
		<g>
			<path d="M76.855,222.652c5.161,1.683,10.998,1.458,16.345,2.581c6.529,1.371,12.847,3.854,18.949,6.501
				c0.676,0.293,0.794-1.842,0.202-2.115c-5.636-2.595-11.417-4.995-17.425-6.597c-5.607-1.495-12.418-3.642-18.102-1.65
				C76.513,221.481,76.546,222.552,76.855,222.652L76.855,222.652z"/>
		</g>
	</g>
	<g>
		<g>
			<path d="M112.931,233.949c0.37,0,0.351-1.211-0.029-1.211C112.532,232.738,112.551,233.949,112.931,233.949L112.931,233.949z"/>
		</g>
	</g>
	<g>
		<g>
			<path d="M85.265,246.282c0.37,0,0.351-1.211-0.029-1.211C84.866,245.071,84.885,246.282,85.265,246.282L85.265,246.282z"/>
		</g>
	</g>
	<g>
		<g>
			<path d="M216.728,222.007c0.245-14.335-13.123-25.684-24.174-32.44c-15.291-9.348-33.167-12.864-48.248-22.476
				c-0.31-0.197-0.43,0.967-0.112,1.171c13.337,8.563,28.819,12.341,42.82,19.68c6.813,3.571,13.275,7.893,18.734,13.338
				c6.097,6.08,8.481,12.826,10.715,20.9C216.559,222.53,216.725,222.193,216.728,222.007L216.728,222.007z"/>
		</g>
	</g>
	<g>
		<g>
			<path d="M282.024,65.357c-17.646-11.399-38.959-13.574-59.212-17.393c-9.846-1.856-19.201-4.995-28.915-7.271
				c-13.93-3.264-28.621-3.106-42.839-3.717c-28.335-1.216-55.87,4.289-80.433,18.903C60.224,62.069,50.34,70.552,44.748,81.452
				c-5.103,9.945-4.557,21.667-3.099,32.402c0.118,0.869,0.61,0.209,0.534-0.355c-1.913-14.193-0.995-27.561,8.202-39.149
				c7.841-9.882,19.101-16.796,30.341-22.155c11.903-5.675,24.646-9.646,37.622-11.918c13.761-2.409,27.384-1.558,41.248-1.188
				c12.633,0.337,25.284,0.726,37.59,3.87c9.028,2.307,17.788,4.93,26.966,6.749c10.334,2.049,20.707,3.908,30.946,6.405
				c9.77,2.383,18.032,5.873,26.79,10.681C282.313,67.026,282.392,65.595,282.024,65.357L282.024,65.357z"/>
		</g>
	</g>
	<g>
		<g>
			<path d="M362.234,248.533c0.55-9.027,2.657-17.877,2.993-26.919c0.368-9.91-0.097-19.489,1.313-29.368
				c2.238-15.691,0.796-30.957-9.735-43.544c-5.542-6.624-11.535-12.269-16.268-19.597c-4.771-7.386-9.032-15.088-13.67-22.557
				c-4.286-6.902-9.047-13.488-14.816-19.231c-5.804-5.776-12.727-10.408-18.771-15.942c-0.131-0.12-0.19,0.459-0.092,0.574
				c4.754,5.482,10.869,9.598,16.34,14.31c6.122,5.272,10.931,11.937,15.319,18.661c8.565,13.122,15.109,27.695,26.055,39.106
				c6.375,6.647,11.457,13.09,14.25,22.045c3.024,9.698,1.581,19.578,0.198,29.396c-1.136,8.055-0.81,15.995-0.802,24.1
				c0.01,9.606-2.39,19.017-2.948,28.587C361.562,248.803,362.173,249.542,362.234,248.533L362.234,248.533z"/>
		</g>
	</g>
	<g>
		<g>
			<path d="M358.584,292.716c9.267,4.237,19.505-4.739,25.177-11.047c7.022-7.81,12.328-17.301,16.505-26.892
				c0.02-0.045-0.012-0.246-0.031-0.202c-4.03,9.171-9.114,18.008-15.664,25.619c-3.444,4.003-7.465,7.466-12.11,9.994
				c-4.591,2.5-8.876,2.275-13.878,2.449C358.569,292.638,358.571,292.71,358.584,292.716L358.584,292.716z"/>
		</g>
	</g>
	<g>
		<g>
			<path d="M363.59,238.969c10.554-0.597,22.016,3.164,32.335,0.745c0.133-0.031,0.094-0.744-0.018-0.742
				c-5.278,0.108-10.301,0.001-15.555-0.647c-5.643-0.696-11.212-1.482-16.776,0.058C363.47,238.413,363.507,238.974,363.59,238.969
				L363.59,238.969z"/>
		</g>
	</g>
	<g>
		<g>
			<path d="M344.551,281.967c-9.592,18.883-17.87,38.836-20.835,59.948c-2.72,19.361-2.487,39.596,0.229,58.942
				c2.353,16.747,7.226,35.243,19.183,47.791c12.261,12.867,27.304,22.804,39.927,35.32c0.066,0.066,0.329-1.28,0.057-1.584
				c-10.177-11.363-23.277-20.068-34.578-30.258c-4.671-4.213-8.961-8.615-12.177-14.043c-5.194-8.767-8.32-18.657-10.506-28.553
				c-4.536-20.536-4.745-42.707-2.392-63.552c2.518-22.297,11.191-43.359,21.156-63.261
				C344.713,282.523,344.543,281.982,344.551,281.967L344.551,281.967z"/>
		</g>
	</g>
	<g>
		<g>
			<path d="M277.263,332.185c0.157,0,0.146-1.016-0.025-1.016C277.08,331.169,277.092,332.185,277.263,332.185L277.263,332.185z"/>
		</g>
	</g>
	<g>
		<g>
			<path d="M266.419,269.271c0.236,0,0.219-1.523-0.037-1.523C266.146,267.748,266.163,269.271,266.419,269.271L266.419,269.271z"/>
		</g>
	</g>
	<g>
		<g>
			<path d="M312.045,286.319c2.447-1.59,3.946-4.807,5.257-7.296c2.191-4.159,3.973-8.545,5.557-12.967
				c1.351-3.771,2.615-7.679,3.168-11.659c0.226-1.626-0.006-2.96-0.337-4.57c-0.727-3.534-1.554-7.048-2.493-10.532
				c-1.987-7.373-4.668-17.42-11.614-21.791c-5.415-3.408-11.411-0.081-16.282,2.633c-2.309,1.286-5.285,2.561-6.768,4.848
				c-0.885,1.365-1.169,3.136-1.548,4.687c-0.831,3.395-1.783,6.747-2.878,10.066c0.076-0.231,0.786-0.259,0.865-0.5
				c1.385-4.197,2.325-8.485,3.567-12.715c0.968-3.295,3.594-4.6,6.487-6.212c5.433-3.026,11.527-5.745,17.034-1.349
				c2.784,2.222,4.594,5.557,6.068,8.728c2.351,5.053,3.848,10.505,5.18,15.899c1.101,4.459,2.424,8.647,1.53,13.205
				c-0.837,4.262-2.306,8.422-3.848,12.472c-1.391,3.654-2.969,7.248-4.792,10.708c-1.229,2.335-2.699,5.338-4.99,6.827
				C311.406,286.671,311.792,286.483,312.045,286.319L312.045,286.319z"/>
		</g>
	</g>
	<g>
		<g>
			<path d="M41.94,114.3c18.1-11.004,37.633-19.629,59.348-17.553c25.432,2.431,40.337,22.078,52.259,42.593
				c-0.016-0.664-0.032-1.327-0.049-1.99c-2.598,2.335-4.913,4.963-7.655,7.138c-0.265,0.21-0.204,1.582,0.095,1.745
				c1.508,0.827,2.753,2.059,3.618,3.53c0.002-0.51,0.005-1.021,0.008-1.531c-2.763,1.364-3.711,3.47-4.418,6.353
				c-0.051,0.208,0.124,1.177,0.184,0.947c0.702-2.687,1.623-4.566,4.272-5.742c0.301-0.134,0.173-1.226,0.05-1.453
				c-0.885-1.637-2.146-2.948-3.758-3.881c0.032,0.582,0.063,1.163,0.095,1.745c2.745-2.079,5.074-4.62,7.678-6.862
				c0.365-0.314,0.157-1.632-0.049-1.99c-11.853-20.61-26.051-39.701-51.069-43.278c-20.99-3.001-44.236,5.558-60.711,18.353
				C41.492,112.691,41.904,114.322,41.94,114.3L41.94,114.3z"/>
		</g>
	</g>
	<g>
		<g>
			<path d="M136.932,160.321c2.319,0.98,4.625,1.991,6.944,2.973c1.555,0.659,5.101,2.61,6.717,1.773
				c0.144-0.075,0.107-0.665,0.004-0.768c-1.418-1.409-4.133-1.805-5.976-2.514c-2.545-0.98-5.146-1.849-7.72-2.753
				C136.83,159.007,136.644,160.198,136.932,160.321L136.932,160.321z"/>
		</g>
	</g>
	<g>
		<g>
			<path d="M155.301,587.476c-8.185-11.019-13.034-23.711-16.12-37.002c-3.115-13.414-3.41-27.113-5.77-40.604
				c-0.17-0.974-0.386,0.062-0.37,0.482c0.51,13.46,2.634,27.307,5.422,40.467c3.006,14.191,8.066,27.993,16.728,39.734
				C155.206,590.573,155.824,588.18,155.301,587.476L155.301,587.476z"/>
		</g>
	</g>
	<g>
		<g>
			<path d="M276.449,307.288c13.017-6.362,31.395-9.386,38.5-23.5c-0.292,0.579-2.592,0.168-2.898,0.777
				c-7.104,14.113-25.482,17.137-38.5,23.5C274.429,307.636,275.563,307.722,276.449,307.288L276.449,307.288z"/>
		</g>
	</g>
	<g>
		<g>
			<path d="M275.551,294.065c0.972,0,1.938-0.777,2.898-0.777C277.478,293.288,276.511,294.065,275.551,294.065L275.551,294.065z"/>
		</g>
	</g>
	<g>
		<g>
			<path d="M239.334,262.41c3.527,11.216,8.37,21.871,13.987,32.188c0.319,0.586,0.752-0.348,0.587-0.725
				c-1.39-3.174-2.047-6.532-2.982-9.851c-0.195-0.693-0.829-0.265-0.686,0.309c0.726,2.892,1.382,5.786,2.345,8.61
				c-1.239-3.633-2.82-6.951-4.502-10.479c-3.174-6.652-5.902-13.535-8.251-20.519C239.643,261.381,239.215,262.03,239.334,262.41
				L239.334,262.41z"/>
		</g>
	</g>
	<g>
		<g>
			<path d="M248.848,249.556c6.048,8.779,11.403,18.014,16.422,27.414c0.36,0.674,0.796-0.113,0.627-0.586
				c-3.501-9.805-5.544-19.922-7.037-30.204c-0.433-2.979,0.727-3.68,1.32-6.101c0.205-0.835,0.76-4.926,1.876-4.699
				c1.271,0.258,1.703,0.834,3.039,0.782c0.136-0.005,0.229-0.129,0.27-0.248c1.145-3.392,4.597-5.349,5.956-8.537
				c0.115-0.271-0.211-0.897-0.435-0.486c-0.861,1.579-2.48,2.875-3.599,4.293c-0.857,1.087-1.606,2.224-2.22,3.464
				c-0.536,1.085-3.133-0.285-3.908-0.463c-0.176-0.04-0.32,0.069-0.369,0.242c-0.593,2.078-0.707,4.567-1.72,6.479
				c-0.225,0.424-1.371,1.129-1.27,1.896c0.965,7.282,2.129,14.518,3.785,21.678c0.701,3.032,1.571,6.019,2.495,8.989
				c0.996,3.202,0.854,1.082,0.04-0.448c-0.618-1.162-1.251-2.316-1.882-3.471c-3.911-7.165-8.211-14.088-12.921-20.754
				C248.947,248.273,248.6,249.195,248.848,249.556L248.848,249.556z"/>
		</g>
	</g>
	<g>
		<g>
			<path d="M338.891,251.485c1.74,2.975,3.601,5.861,5.599,8.668c1.84,2.585,3.87,5.933,6.521,7.727
				c0.219,0.148,0.248-0.249,0.177-0.373c-1.655-2.887-4.265-5.373-6.261-8.059c-2.044-2.751-3.896-5.64-5.651-8.582
				C339.01,250.423,338.715,251.184,338.891,251.485L338.891,251.485z"/>
		</g>
	</g>
	<g>
		<g>
			<path d="M338.061,243.713c2.429,3.646,4.667,7.722,7.436,11.104c0.143,0.175,0.257-0.114,0.195-0.241
				c-1.887-3.91-4.954-7.5-7.586-10.935C338.067,243.591,338.038,243.679,338.061,243.713L338.061,243.713z"/>
		</g>
	</g>
	<g>
		<g>
			<path d="M32.569,315.61c-2.884-0.008-5.602,0.164-8.501-0.059c0.073,0.354,0.146,0.708,0.219,1.063
				c5.324-10.823,16.548-3.172,23.145,2.148c0.689,0.557,1.142-2.521,0.303-3.172c-7.461-5.792-18.323-10.546-23.855,0.148
				c-0.115,0.223-0.145,1.022,0.219,1.063c2.953,0.326,5.571,0.025,8.499-0.059C32.946,316.733,32.922,315.611,32.569,315.61
				L32.569,315.61z"/>
		</g>
	</g>
	<g>
		<g>
			<path d="M48.533,205.206c0.63,0.338,2.163,1.511,3.013,1.02c0.391-0.226,1.935-1.881,2.393-1.34
				c0.528,0.623,1.016,1.506,1.725,1.95c1.71,1.071,2.581-0.108,3.869-1.441c1.875-1.938,4.002-3.803,5.631-5.934
				c0.066-0.086,0.114-0.664-0.088-0.617c-1.636,0.385-2.716,1.884-3.827,3.082c-1.116,1.205-2.217,2.397-3.473,3.462
				c-1.578,1.338-3.295-1.513-4.05-2.333c-0.114-0.125-0.206-0.108-0.315,0.008c-1.859,1.97-2.367,2.222-4.777,1.084
				C48.303,203.992,48.246,205.052,48.533,205.206L48.533,205.206z"/>
		</g>
	</g>
	<g>
		<g>
			<path d="M224.589,251.005c-0.696-9.34-3.229-18.095-7.921-26.223c0.056,0.095-0.868,3.581-0.17,4.789
				c4.072,7.055,6.473,14.641,7.079,22.777C223.834,255.791,224.72,252.755,224.589,251.005L224.589,251.005z"/>
		</g>
	</g>
	<g>
		<g>
			<path d="M240.532,434.788c9.652-3.995,20.444-4.946,30.449-7.981c0.017-0.006,0.033-0.013,0.051-0.019
				c-1.189-1.027-2.732-2.107-3.5-3.5c-0.966,0.259-1.933,0.519-2.898,0.777c3.286,0.507,7.534,0.221,10.398-1.777
				c-0.765,0.533-2.121,0.234-2.898,0.777c-0.59,0.53-1.275,0.876-2.056,1.036c0.967-0.259,1.933-0.518,2.898-0.776
				c-1.878,0.304-3.567,0.253-5.444-0.037c-0.359-0.055-2.807,0.943-2.898,0.777c0.5,0.904,1.375,1.585,2.123,2.279
				c2.76,2.566-2.312,2.222-4.579,2.739c-4.159,0.95-8.356,1.741-12.494,2.787c-4.078,1.031-8.154,2.082-12.05,3.694
				C238.547,435.188,239.613,435.169,240.532,434.788L240.532,434.788z"/>
		</g>
	</g>
	<g>
		<g>
			<path d="M271.134,414.065c2.263,1.755,4.018,4.07,5.5,6.5c0.159,0.259,2.763-0.999,2.898-0.777c-1.483-2.429-3.238-4.744-5.5-6.5
				c-0.148-0.114-1.285,0.329-1.453,0.374C272.429,413.702,271.254,414.158,271.134,414.065L271.134,414.065z"/>
		</g>
	</g>
	<g>
		<g>
			<path d="M236.134,202.065c13.946,6.099,28.695,10.318,44,10.5c0.969,0.012,1.942-0.788,2.898-0.776
				c-15.306-0.182-30.055-4.401-44-10.5C238.304,200.97,236.837,202.372,236.134,202.065L236.134,202.065z"/>
		</g>
	</g>
	<g>
		<g>
			<path d="M279.599,329.677c-0.027-0.028-0.055-0.056-0.083-0.084c-0.064-0.065-0.812,0.555-0.865,0.5
				c0.027,0.028,0.055,0.056,0.083,0.084C278.798,330.242,279.545,329.622,279.599,329.677L279.599,329.677z"/>
		</g>
	</g>
	<g>
		<g>
			<path d="M279.15,333.26c-0.112,0.645-0.286,1.292-0.705,1.81c-0.061,0.074-0.133,0.138-0.206,0.2
				c0.644-0.551,0.748-0.34,0.354-0.27c-0.176,0.031-0.354-0.016-0.514-0.083c-1.103-0.464-1.104-2.2-0.981-3.157
				c-0.024,0.194-0.839,0.294-0.865,0.5c-0.126,0.977-0.042,3.381,1.494,3.24c0.429-0.039,0.976-0.431,1.307-0.678
				c0.637-0.475,0.854-1.319,0.981-2.063C279.98,332.964,279.188,333.044,279.15,333.26L279.15,333.26z"/>
		</g>
	</g>
	<g>
		<g>
			<path d="M274.582,331.903c-0.429,1.873-0.169,4.985,2.242,5.437c3.218,0.602,5.577-2.448,6.365-5.194
				c0.05-0.174-0.114-0.613-0.213-0.271c-0.685,2.385-2.347,4.453-4.953,4.653c-2.645,0.204-3.575-2.209-3.266-4.463
				C274.775,331.935,274.641,331.65,274.582,331.903L274.582,331.903z"/>
		</g>
	</g>
	<g>
		<g>
			<path d="M279.576,320.744c1.34,4.26,2.366,9.722-0.842,13.41c-0.059,0.067,0.005,0.399,0.031,0.377
				c1.856-1.655,2.184-4.369,2.166-6.737c-0.014-1.888,0.151-5.77-1.346-7.192C279.569,320.586,279.57,320.727,279.576,320.744
				L279.576,320.744z"/>
		</g>
	</g>
	<g>
		<g>
			<path d="M280.673,320.45c0.167,0,0.158-0.547-0.014-0.547C280.492,319.903,280.501,320.45,280.673,320.45L280.673,320.45z"/>
		</g>
	</g>
	<path fill="none" stroke="#000000" stroke-miterlimit="10" d="M281.666,319.593"/>
	<g>
		<g>
			<path d="M134.65,509.427c0.629,27.047,2.691,56.381,21.425,77.625c17.154,19.452,44.112,28.165,69.138,31.177
				c28.811,3.467,59.013-0.94,85.785-12.054c21.746-9.026,41.851-23.492,54.361-43.733c13.372-21.635,16.562-46.943,20.656-71.515
				c-0.033,0.203-0.83,0.285-0.865,0.5c-4.651,27.904-8.464,56.887-26.462,79.9c-17.783,22.737-44.81,36.001-72.402,42.618
				c-28.74,6.893-59.241,6.685-87.541-2.078c-11.773-3.645-23.058-9.052-32.739-16.734c-10.163-8.064-17.736-18.647-22.387-30.727
				c-6.76-17.557-7.67-36.879-8.104-55.479C135.52,509.08,134.646,509.261,134.65,509.427L134.65,509.427z"/>
		</g>
	</g>
	<g>
		<g>
			<path d="M285.981,291.307c12.496-3.915,27.266-14.223,20.551-29.018c-0.077-0.169-2.84,0.905-2.898,0.776
				c6.689,14.74-7.979,25.076-20.449,28.982C283.859,291.836,285.118,291.576,285.981,291.307L285.981,291.307z"/>
		</g>
	</g>
	<g>
		<g>
			<path d="M276.144,218.891c11.671-8.172,26.149-12.918,39.923-7.235c18.005,7.429,21.374,33.451,15.368,49.546
				c-0.164,0.438,0.201,2.135,0.241,2.065c4.399-7.682,3.181-19.063,2.177-27.479c-0.984-8.257-4.254-16.299-10.31-22.108
				c-13.564-13.012-34.415-6.028-47.521,3.783C275.754,217.664,276.013,218.982,276.144,218.891L276.144,218.891z"/>
		</g>
	</g>
</g>
<g id="Layer_3">
	<g>
		<g>
			<path d="M11.331,208.227c2.716-15.887,6.646-31.393,10.7-46.976c2.056-7.9,4.086-15.806,6.91-23.475
				c2.943-7.993,6.971-15.712,11.367-22.998c0.158-0.262-0.803-0.444-0.949-0.202c-4.102,6.799-7.797,13.945-10.734,21.327
				c-3.02,7.588-5.066,15.531-7.115,23.423c-4.204,16.194-8.352,32.292-11.174,48.801C10.29,208.395,11.28,208.521,11.331,208.227
				L11.331,208.227z"/>
		</g>
	</g>
	<g>
		<g>
			<path d="M33.081,237.22c2.409-8.047-0.584-16.44-6.559-22.106c-0.193-0.183-1.153-0.135-0.878,0.126
				c5.916,5.61,8.821,13.942,6.441,21.894C32.016,237.365,32.99,237.525,33.081,237.22L33.081,237.22z"/>
		</g>
	</g>
	<g>
		<g>
			<path d="M26.271,233.613c-6.398-6.19-9.544-18.035-18.922-20.587c-0.287-0.078-1.154,0.132-0.532,0.302
				c4.882,1.328,7.99,5.83,10.689,9.797c2.475,3.638,4.702,7.534,7.889,10.616C25.585,233.925,26.546,233.878,26.271,233.613
				L26.271,233.613z"/>
		</g>
	</g>
	<g>
		<g>
			<path d="M28.621,325.074c-3.722-1.721-7.603-3.009-11.464-4.37c-3.806-1.341-7.767-2.808-10.727-5.651
				c-6.576-6.317-2.587-17.639,0.225-24.801c3.958-10.082,9.759-19.505,15.992-28.323c2.211-3.128,4.776-6.001,6.435-9.477
				c2.291-4.802,3.675-10.08,5.235-15.147c0.082-0.266-0.88-0.536-0.967-0.256c-1.567,5.092-3.018,10.29-5.235,15.148
				c-1.864,4.084-5.099,7.532-7.646,11.202c-6.186,8.91-11.784,18.456-15.564,28.651c-2.689,7.254-5.365,17.208,0.994,23.317
				c2.392,2.298,5.61,3.645,8.657,4.82c4.49,1.732,9.113,3.067,13.49,5.092C28.314,325.403,29.206,325.345,28.621,325.074
				L28.621,325.074z"/>
		</g>
	</g>
	<g>
		<g>
			<path d="M25.01,314.797c3.483-2.747,7.514-4.513,12.025-3.902c4.442,0.602,8.024,3.84,10.564,7.313
				c0.178,0.244,1.117,0.142,0.968-0.063c-2.817-3.854-6.485-6.741-11.249-7.624c-4.782-0.887-9.476,1.127-13.162,4.035
				C23.853,314.796,24.802,314.961,25.01,314.797L25.01,314.797z"/>
		</g>
	</g>
	<g>
		<g>
			<path d="M24.884,317.315c5.061-0.726,9.923-0.754,15-0.25c0.938,0.093,1.975-0.868,2.897-0.777c-5.077-0.503-9.938-0.475-15,0.25
				C26.797,316.68,25.864,317.175,24.884,317.315L24.884,317.315z"/>
		</g>
	</g>
	<g>
		<g>
			<path d="M67.362,299.042c3.04,5.968,5.737,12.067,7.718,18.473c2.001,6.469,2.803,13.093,4.007,19.727
				c0.052,0.29,1.041,0.143,0.991-0.129c-1.255-6.918-2.163-13.765-4.249-20.509c-1.908-6.166-4.602-12.051-7.526-17.792
				C68.183,298.572,67.215,298.753,67.362,299.042L67.362,299.042z"/>
		</g>
	</g>
	<g>
		<g>
			<path d="M37.146,363.685c-5.997-0.332-12.853,1.209-18.443,3.264c0.285,0.108,0.57,0.218,0.855,0.326
				c-0.438-1.088,0.691-1.921,1-2.944c0.084-0.276-0.87-0.577-0.951-0.307c-0.358,1.181-1.508,1.793-1,3.056
				c0.101,0.25,0.614,0.415,0.855,0.326c5.495-2.02,12.167-3.563,18.057-3.236C38.167,364.204,37.451,363.702,37.146,363.685
				L37.146,363.685z"/>
		</g>
	</g>
	<g>
		<g>
			<path d="M12.333,363.183c-3.365-12.87,2.493-27.699,15.352-32.61c0.486-0.186-0.469-0.381-0.704-0.291
				c-12.982,4.958-19.063,19.829-15.648,32.89C11.416,363.486,12.39,363.4,12.333,363.183L12.333,363.183z"/>
		</g>
	</g>
	<g>
		<g>
			<path d="M35.468,325.631c4.565-0.143,6.889,2.664,7.867,6.841c0.071,0.301,1.055,0.16,0.996-0.09
				c-0.503-2.148-1.3-4.226-3.043-5.669c-1.548-1.283-3.651-1.551-5.59-1.49C35.277,325.236,34.784,325.652,35.468,325.631
				L35.468,325.631z"/>
		</g>
	</g>
	<g>
		<g>
			<path d="M45.588,336.346c2.08-0.516,4.17-0.984,6.25-1.5c0.628-0.156-0.216-0.41-0.51-0.338c-2.08,0.516-4.17,0.984-6.25,1.5
				C44.45,336.164,45.294,336.418,45.588,336.346L45.588,336.346z"/>
		</g>
	</g>
	<g>
		<g>
			<path d="M93.333,374.93c0.936-3.617,0.543-6.386-1.268-9.602c-1.18-2.097-2.27-3.946-2.698-6.367
				c-0.418-2.367-0.218-4.856-0.322-7.249c-0.005-0.108-0.165-0.155-0.247-0.174c-1.32-0.301-2.372-1.201-3.689-1.526
				c-0.859-0.213-1.832,0.069-2.659,0.279c-2.763,0.7-3.862-0.543-5.872-1.708c-1.268-0.734-2.909-0.364-3.86-1.725
				c-0.135-0.193-0.54-0.168-0.734-0.123c-0.704,0.163-1.729-0.533-2.527-0.625c-1.707-0.197-3.468-0.099-5.12-0.604
				c-0.295-0.091-1.127,0.152-0.507,0.342c2.184,0.67,4.48,0.285,6.662,0.995c1.034,0.336,0.951,0.482,1.996,0.24
				c-0.245-0.041-0.489-0.082-0.734-0.123c0.62,0.887,1.476,1.14,2.497,1.395c1.903,0.477,3.029,1.756,4.714,2.581
				c0.736,0.36,1.782,0.298,2.543,0.101c1.229-0.319,6.474-0.812,6.577,1.547c0.184,4.22,0.054,7.868,2.287,11.607
				c2.166,3.626,3.043,6.558,1.963,10.733C92.275,375.147,93.252,375.243,93.333,374.93L93.333,374.93z"/>
		</g>
	</g>
	<g>
		<g>
			<path d="M65.348,368.16c0.586,1.24,0.969,2.661,1.25,4c0.056,0.264,1.036,0.35,0.97,0.033c-0.281-1.338-0.665-2.759-1.25-4
				C66.191,367.926,65.231,367.911,65.348,368.16L65.348,368.16z"/>
		</g>
	</g>
	<g>
		<g>
			<path d="M39.202,376.521c7.675-4.904,16.975-4.337,25.653-3.391c0.302,0.033,1.1-0.338,0.456-0.408
				c-9.064-0.987-18.84-1.506-26.847,3.609C38.02,376.616,38.986,376.659,39.202,376.521L39.202,376.521z"/>
		</g>
	</g>
	<g>
		<g>
			<path d="M26.854,357.346c0.781,1.316,1.47,2.685,2.25,4c0.156,0.264,1.066,0.347,0.957,0.162c-0.781-1.316-1.47-2.685-2.25-4
				C27.655,357.244,26.745,357.161,26.854,357.346L26.854,357.346z"/>
		</g>
	</g>
	<g>
		<g>
			<path d="M51.098,503.807c-0.715,1.363-1.118,2.849-1.75,4.25c0.322,0.062,0.644,0.123,0.966,0.185
				c-1.469-5.428-2.802-10.897-5.75-15.75c-0.11-0.182-0.773-0.477-0.936-0.232c-1.993,2.994-5.397,4.705-7.28,7.798
				c0.324,0.08,0.647,0.16,0.971,0.24c0.431-3.539,0.406-8.074-2.436-10.677c-2.261-2.07-5.475-0.966-7.754,0.389
				c-0.19,0.113,0.647,0.492,0.91,0.336c1.916-1.14,4.274-2.277,6.302-0.421c0.743,0.681,1.156,1.664,1.502,2.586
				c0.892,2.37,0.806,5.077,0.505,7.547c-0.037,0.307,0.823,0.482,0.971,0.24c1.862-3.059,5.248-4.74,7.22-7.702
				c-0.312-0.078-0.624-0.155-0.936-0.232c2.949,4.853,4.281,10.323,5.75,15.75c0.066,0.244,0.848,0.448,0.966,0.185
				c0.632-1.401,1.035-2.887,1.75-4.25C52.176,503.841,51.248,503.521,51.098,503.807L51.098,503.807z"/>
		</g>
	</g>
	<g>
		<g>
			<path d="M206.293,458.273c7.494,4.015,16.529,3.171,23.75,7.75c0.261,0.165,1.128,0.154,0.58-0.193
				c-7.264-4.606-16.255-3.735-23.75-7.75C206.608,457.938,205.723,457.968,206.293,458.273L206.293,458.273z"/>
		</g>
	</g>
	<g>
		<g>
			<path d="M245.087,305.367c-0.072,4.727,0.156,9.11,2.178,13.45c1.021,2.191,1.83,4.32,1.775,6.778
				c-0.047,2.122-1.205,3.896-1.93,5.813c-0.576,1.523,0.099,3.042,0.778,4.393c0.579,1.15,1.032,2.091,1.197,3.406
				c0.155,1.244-0.361,2.611-0.479,3.849c-0.155,1.648,0.948,2.875,2.038,3.934c2.06,2.002,2.688,4.515,2.948,7.291
				c0.312,0.004,0.624,0.007,0.937,0.011c-0.05-0.045-0.101-0.09-0.151-0.135c-0.129-0.115-1.06-0.272-0.926,0.045
				c1.574,3.726,6.289,5.336,5.84,9.9c0.256-0.027,0.512-0.055,0.768-0.082c-0.444-0.172-0.888-0.345-1.329-0.521
				c-0.099-0.049-1.012-0.206-0.854,0.095c2.662,5.041,2.391,10.798,5.81,15.555c1.538,2.14,3.229,4.119,4.292,6.558
				c1.205,2.768,0.607,6.466,0.607,9.411c0,0.307,0.992,0.38,0.992,0.119c0-2.586,0.486-5.706-0.214-8.218
				c-0.713-2.558-2.267-4.628-3.849-6.715c-1.732-2.286-3.064-4.504-3.854-7.287c-0.907-3.201-1.237-6.427-2.814-9.415
				c-0.284,0.032-0.569,0.063-0.854,0.095c0.501,0.252,1,0.404,1.522,0.607c0.126,0.049,0.743,0.169,0.768-0.082
				c0.458-4.645-4.263-6.228-5.861-10.012c-0.309,0.016-0.617,0.03-0.926,0.045c0.05,0.045,0.101,0.09,0.151,0.135
				c0.109,0.098,0.964,0.304,0.937,0.011c-0.167-1.797-0.479-3.45-1.233-5.102c-1.073-2.346-3.609-3.302-3.752-6.124
				c-0.095-1.889,0.698-3.463,0.178-5.385c-0.604-2.23-2.347-3.772-1.676-6.263c0.466-1.727,1.463-3.181,1.835-4.975
				c0.439-2.123-0.24-4.276-1.026-6.22c-0.979-2.415-2.029-4.549-2.495-7.147c-0.453-2.525-0.375-5.146-0.337-7.699
				C246.084,305.183,245.091,305.103,245.087,305.367L245.087,305.367z"/>
		</g>
	</g>
	<g>
		<g>
			<path d="M109.805,231.287c-1.673-3.405-6.72-4.672-10.018-5.699c-5.849-1.821-11.596-3.018-17.741-3.163
				c-0.511-0.012,0.325,0.496,0.572,0.502c5.358,0.127,10.363,1.063,15.494,2.576c3.388,0.999,9.046,2.101,10.748,5.563
				C108.996,231.341,109.902,231.484,109.805,231.287L109.805,231.287z"/>
		</g>
	</g>
	<g>
		<g>
			<path d="M80.61,223.266c-0.067,5.669,0.887,14.386,6.673,17.204c7.219,3.517,15.462-4.973,20.99-8.337
				c0.211-0.129-0.62-0.569-0.879-0.412c-5.493,3.343-12.346,10.628-19.408,8.593c-3.275-0.944-4.676-5.375-5.438-8.265
				c-0.721-2.737-1.025-5.634-0.992-8.46C81.56,223.257,80.612,223.053,80.61,223.266L80.61,223.266z"/>
		</g>
	</g>
	<g>
		<g>
			<path d="M55.731,215.108c2.148-0.312,4.214-1.167,6.208-1.991c1.362-0.563,2.685-1.217,3.981-1.916
				c0.43-0.231,0.864-0.484,1.276-0.748c0.867-0.555,1.2-0.014,2.088,0.427c5.505,2.731,12.105,1.143,17.627,3.682
				c0.239,0.11,1.159-0.127,0.844-0.272c-6.214-2.857-13.564-0.889-19.5-4.75c-0.228-0.148-0.651-0.073-0.86,0.071
				c-3.415,2.345-7.82,4.532-11.96,5.134C54.758,214.844,55.314,215.168,55.731,215.108L55.731,215.108z"/>
		</g>
	</g>
	<g>
		<g>
			<path d="M41.025,210.965c3.884-3.058,8.217-4.023,13.083-3.832c0.297,0.012,1.095-0.388,0.451-0.413
				c-5.338-0.21-10.158,0.814-14.417,4.168C39.866,211.104,40.817,211.129,41.025,210.965L41.025,210.965z"/>
		</g>
	</g>
	<g>
		<g>
			<path d="M57.361,204.805c2.517-1.083,4.979-2.276,7.334-3.681c1.722-1.027,3.072-2.336,5.041-2.914
				c1.984-0.583,3.95-1.142,5.875-1.905c-0.257-0.015-0.514-0.029-0.771-0.044c2.254,4.643,6.669,7.459,11.773,7.879
				c0.304,0.025,1.085-0.372,0.439-0.425c-4.876-0.401-9.088-3.217-11.227-7.621c-0.117-0.24-0.588-0.117-0.771-0.044
				c-2.077,0.823-4.21,1.404-6.35,2.032c-1.507,0.442-2.261,1.21-3.571,2.124c-2.565,1.787-5.466,3.113-8.33,4.344
				C56.21,204.805,57.082,204.925,57.361,204.805L57.361,204.805z"/>
		</g>
	</g>
	<g>
		<g>
			<path d="M95.936,207.637c6.233,0.117,12.236,2.436,17.872,4.923c0.281,0.124,1.144-0.005,0.551-0.267
				c-5.871-2.591-12.136-4.956-18.628-5.077C95.049,207.204,95.505,207.629,95.936,207.637L95.936,207.637z"/>
		</g>
	</g>
	<g>
		<g>
			<path d="M75.583,226.159c0.075-0.489-1.452-0.307-1.646-0.293c-1.763,0.12-3.602,0.464-5.358,0.129
				c-0.297-0.057-1.128,0.242-0.492,0.363c1.123,0.214,2.266,0.177,3.401,0.109c0.304-0.018,3.075-0.136,3.096-0.273
				C74.546,226.437,75.535,226.472,75.583,226.159L75.583,226.159z"/>
		</g>
	</g>
	<g>
		<g>
			<path d="M77.206,223.944c-0.989,0.159-2.291-0.5-3.163-0.871c-1.116-0.474-2.194-1.084-3.079-1.918
				c-0.186-0.175-1.144-0.317-0.761,0.044c1.198,1.128,2.736,1.909,4.266,2.484c1.061,0.399,2.334,0.913,3.492,0.727
				C78.296,224.356,77.464,223.902,77.206,223.944L77.206,223.944z"/>
		</g>
	</g>
	<g>
		<g>
			<path d="M91.481,252.638c8.661-0.694,17.896-3.52,24.794-8.928c0.272-0.213-0.677-0.228-0.885-0.065
				c-6.582,5.161-15.437,7.909-23.706,8.572C91.262,252.25,90.8,252.692,91.481,252.638L91.481,252.638z"/>
		</g>
	</g>
	<g>
		<g>
			<path d="M88.878,246.668c8.563-0.387,15.895-4.581,22.649-9.545c0.212-0.156-0.646-0.569-0.888-0.392
				c-6.665,4.899-13.894,9.073-22.351,9.455C87.772,246.209,88.628,246.679,88.878,246.668L88.878,246.668z"/>
		</g>
	</g>
	<g>
		<g>
			<path d="M24.49,240.103c1.481-0.642,2.957-1.229,4.597-1.21c-0.208-0.13-0.416-0.261-0.624-0.391
				c-1.121,0.445-2.618,0.152-3.715-0.241c-0.409-0.146-0.97,0.103-0.33,0.332c1.44,0.516,3.394,0.843,4.858,0.261
				c0.387-0.153-0.526-0.39-0.624-0.391c-1.77-0.02-3.375,0.594-4.976,1.288C23.342,239.895,24.247,240.208,24.49,240.103
				L24.49,240.103z"/>
		</g>
	</g>
	<g>
		<g>
			<path d="M27.818,235.917c0.741-2.965,2.226-6.517,4.706-8.446c0.278-0.216-0.674-0.251-0.882-0.089
				c-2.529,1.967-4.041,5.538-4.794,8.554C26.771,236.245,27.752,236.182,27.818,235.917L27.818,235.917z"/>
		</g>
	</g>
	<g>
		<g>
			<path d="M25.49,240.1c1.423-0.287,2.763-0.985,4.237-0.964c0.433,0.006,0.893-0.408,0.212-0.418
				c-1.674-0.023-3.151,0.71-4.763,1.036C24.505,239.889,25.077,240.184,25.49,240.1L25.49,240.1z"/>
		</g>
	</g>
	<g>
		<g>
			<path d="M320.732,266.724c0.595,0,0.567-0.399-0.018-0.399C320.12,266.324,320.147,266.724,320.732,266.724L320.732,266.724z"/>
		</g>
	</g>
	<g>
		<g>
			<path d="M284.805,281.797c-2.623-3.98-1.413-7.333-0.495-11.673c0.822-3.882,0.697-7.72,0.547-11.666
				c-0.175-4.561-0.438-9.124-0.316-13.69c0.048-1.811,0.185-3.627,0.559-5.401c0.487-2.316,1.845-4.522,2.724-6.713
				c1.376-3.429,2.438-7.059,4.354-10.241c2.233-3.71,6.08-5.17,10.178-5.873c5.798-0.994,9.358,2.128,12.271,6.775
				c2.464,3.93,4.043,8.374,5.716,12.676c0.097,0.248,1.077,0.155,0.959-0.149c-2.794-7.185-6.421-19.553-15.814-20.016
				c-3.59-0.177-7.933,1.007-10.947,2.971c-2.961,1.929-4.405,5.335-5.648,8.494c-0.851,2.161-1.643,4.344-2.521,6.494
				c-0.817,2.004-1.908,3.902-2.356,6.032c-0.972,4.61-0.518,9.631-0.336,14.298c0.17,4.376,0.652,8.896,0.136,13.263
				c-0.512,4.327-2.927,8.809-0.895,13.034c0.259,0.538,0.6,1.037,0.927,1.534C284.007,282.189,284.962,282.035,284.805,281.797
				L284.805,281.797z"/>
		</g>
	</g>
	<g>
		<g>
			<path d="M270.084,296.321c0.595,0,0.567-0.4-0.018-0.4C269.472,295.921,269.499,296.321,270.084,296.321L270.084,296.321z"/>
		</g>
	</g>
	<g>
		<g>
			<path d="M270.5,298.611c4.366,1.17,8.873,0.574,12.024-2.888c0.259-0.285-0.704-0.289-0.883-0.094
				c-2.788,3.064-6.572,3.658-10.476,2.612C270.922,298.177,269.996,298.476,270.5,298.611L270.5,298.611z"/>
		</g>
	</g>
	<g>
		<g>
			<path d="M263.34,315.274c0.809,4.402,3.158,8.596,5.889,12.09c1.71,2.188,4.35,4.89,7.4,4.553
				c0.521-0.058-0.339-0.508-0.592-0.48c-3.325,0.367-6.234-4.239-7.786-6.624c-1.831-2.811-3.35-6.036-3.958-9.353
				C264.241,315.178,263.286,314.981,263.34,315.274L263.34,315.274z"/>
		</g>
	</g>
	<g>
		<g>
			<path d="M331.172,263.317c-1.863,13.533-5.383,26.305-13.4,37.544c-9.16,12.842-22.148,21.441-35.618,29.206
				c-0.307,0.177,0.631,0.351,0.859,0.219c13.584-7.831,26.386-16.462,35.722-29.3c8.118-11.164,11.579-24.148,13.438-37.649
				C332.207,263.078,331.214,263.014,331.172,263.317L331.172,263.317z"/>
		</g>
	</g>
	<g>
		<g>
			<path d="M327.329,218.781c0.589,0,0.601-0.399,0.008-0.399C326.748,218.382,326.736,218.781,327.329,218.781L327.329,218.781z"/>
		</g>
	</g>
	<g>
		<g>
			<path d="M265.767,227.584c-0.256-0.216-0.689-0.362-0.214-0.692c0.437-0.304,0.873-0.607,1.31-0.91
				c0.873-0.607,1.748-1.212,2.624-1.815c0.306-0.21-0.641-0.369-0.859-0.219c-1.139,0.784-2.274,1.572-3.41,2.361
				c-0.354,0.247-0.8,0.402-0.899,0.841c-0.063,0.277,0.432,0.492,0.582,0.62C265.102,227.941,266.058,227.831,265.767,227.584
				L265.767,227.584z"/>
		</g>
	</g>
	<g>
		<g>
			<path d="M365.32,219.039c5.413-13.693,7.908-28.035,5.17-42.636c-2.55-13.593-9.579-24.789-18.526-35.062
				c-4.228-4.854-8.63-9.55-12.729-14.517c-3.718-4.505-7.325-9.063-11.147-13.482c-3.521-4.073-6.551-8.263-10.938-11.467
				c-4.842-3.537-9.418-6.86-13.373-11.45c-0.173-0.201-1.13-0.28-0.887,0.002c3.597,4.175,7.652,7.489,12.16,10.613
				c4.592,3.182,7.778,7.121,11.344,11.358c7.84,9.317,15.588,18.673,23.666,27.788c8.988,10.142,16.022,20.926,19.089,34.29
				c3.448,15.027,0.788,30.196-4.803,44.338C364.252,219.051,365.206,219.328,365.32,219.039L365.32,219.039z"/>
		</g>
	</g>
	<g>
		<g>
			<path d="M94.317,239.201c2.944-4.961,2.815-10.367-0.006-15.356c-0.14-0.247-1.105-0.1-0.956,0.165
				c2.796,4.944,2.915,10.223-0.006,15.144C93.209,239.387,94.166,239.456,94.317,239.201L94.317,239.201z"/>
		</g>
	</g>
	<g>
		<g>
			<path d="M92.576,394.345c-1.021-3.709-2.53-7.271-3.5-11c-0.074-0.285-0.714-0.079-0.865,0.001
				c-1.458,0.766-2.845,1.642-4.25,2.5c0.289-0.001,0.577-0.001,0.865-0.001c-0.142-3.685-1.849-7.073-2-10.75
				c-0.013-0.043-0.041-0.072-0.084-0.089c-2.963-1.19-3.657-4.689-5.192-7.211c-0.143-0.234-1.099-0.008-0.934,0.264
				c1.439,2.363,2.151,5.607,4.708,7.048c0.986,0.556,1.225,4.358,1.515,5.434c0.488,1.809,0.928,3.59,1,5.469
				c0.011,0.281,0.754,0.067,0.865-0.001c1.405-0.857,2.792-1.733,4.25-2.5c-0.289,0.001-0.577,0.001-0.865,0.001
				c0.969,3.729,2.479,7.291,3.5,11C91.67,394.802,92.646,394.6,92.576,394.345L92.576,394.345z"/>
		</g>
	</g>
	<g>
		<g>
			<path d="M44.774,389.868c3.93,1.119,6.49,3.463,10.692,2.031c-0.287-0.104-0.573-0.209-0.86-0.313
				c0.938,3.695,3.497,6.754,4.25,10.5c0.057,0.283,1.011,0.471,0.953,0.182c-0.753-3.747-3.312-6.805-4.25-10.5
				c-0.067-0.263-0.644-0.388-0.86-0.313c-3.766,1.282-6.376-0.991-9.808-1.969C44.326,389.324,44.205,389.706,44.774,389.868
				L44.774,389.868z"/>
		</g>
	</g>
	<g>
		<g>
			<path d="M43.249,384.83c6.834-3.121,14.623-2.716,21.5-5.75c0.323-0.143-0.59-0.413-0.832-0.307
				c-6.874,3.032-14.658,2.625-21.5,5.75C42.093,384.671,43.008,384.94,43.249,384.83L43.249,384.83z"/>
		</g>
	</g>
	<g>
		<g>
			<path d="M57.11,408.035c2.341,4.753,4.219,9.705,5.976,14.699c0.098,0.278,0.87,0.172,0.981-0.061
				c0.823-1.698,2.019-3.144,3-4.748c-0.327,0.021-0.654,0.04-0.981,0.061c0.865,3.618,1.154,7.826,3.475,10.882
				c2.262,2.978,4.208,0.268,6.149-1.353c-0.304,0.02-0.609,0.038-0.913,0.058c3.478,4.356,5.561-1.26,7.52-3.899
				c0.138-0.186-0.788-0.24-0.97,0.006c-0.707,0.952-1.287,1.976-1.887,2.996c-0.345,0.587-0.716,1.137-1.163,1.654
				c-1.054,1.22-2.021-0.306-2.555-0.974c-0.174-0.218-0.735-0.091-0.913,0.058c-1.302,1.087-2.513,3.183-4.322,1.238
				c-0.903-0.972-1.339-2.37-1.745-3.6c-0.772-2.335-1.112-4.795-1.683-7.182c-0.073-0.305-0.86-0.139-0.981,0.061
				c-0.982,1.604-2.178,3.049-3,4.748c0.327-0.021,0.654-0.04,0.981-0.061c-1.77-5.029-3.667-10.014-6.024-14.801
				C57.937,407.578,56.967,407.744,57.11,408.035L57.11,408.035z"/>
		</g>
	</g>
	<g>
		<g>
			<path d="M89.271,420.136c3.89-4.573,5.211-10.203,4.535-16.101c-0.032-0.281-0.98-0.52-0.945-0.217
				c0.667,5.828-0.623,11.382-4.465,15.899C88.188,419.961,89.094,420.343,89.271,420.136L89.271,420.136z"/>
		</g>
	</g>
	<g>
		<g>
			<path d="M96.599,376.448c2.324,5.375,4.926,10.624,7.25,16c0.095,0.221,0.843,0.278,0.962,0.063c0.724-1.307,1.276-2.693,2-4
				c-0.321-0.021-0.642-0.043-0.962-0.063c3.272,8.185,7.648,15.894,10.5,24.25c0.085,0.251,0.819,0.243,0.962,0.063
				c0.842-1.063,1.269-2.363,2-3.5c-0.321-0.021-0.642-0.043-0.962-0.063c3.149,5.678,8.489,6.775,13.462,2.563
				c0.166-0.141-0.721-0.368-0.955-0.17c-2.109,1.786-4.597,3.198-7.439,2.005c-1.898-0.797-3.144-2.721-4.099-4.441
				c-0.12-0.217-0.821-0.283-0.962-0.063c-0.731,1.137-1.158,2.438-2,3.5c0.321,0.021,0.642,0.043,0.962,0.063
				c-2.851-8.356-7.228-16.065-10.5-24.25c-0.089-0.224-0.845-0.275-0.962-0.063c-0.724,1.307-1.276,2.693-2,4
				c0.321,0.021,0.642,0.043,0.962,0.063c-2.324-5.375-4.926-10.624-7.25-16C97.454,376.144,96.479,376.173,96.599,376.448
				L96.599,376.448z"/>
		</g>
	</g>
	<g>
		<g>
			<path d="M194.583,366.451c-1.42-9.051,0.696-18.068,2-27c-0.333-0.017-0.665-0.032-0.998-0.049
				c0.353,1.335,1.013,2.526,1.515,3.805c0.103,0.26,1.082,0.229,0.969-0.061c-0.489-1.243-1.141-2.394-1.485-3.695
				c-0.071-0.272-0.954-0.354-0.998-0.049c-1.305,8.932-3.42,17.949-2,27C193.633,366.717,194.62,366.689,194.583,366.451
				L194.583,366.451z"/>
		</g>
	</g>
	<g>
		<g>
			<path d="M200.83,339.478c2.089-6.981,6.25-12.968,9.746-19.281c3.43-6.195,5.408-12.356,4.493-19.491
				c-0.44-3.433-1.309-6.795-1.759-10.227c-0.502-3.824-0.06-7.611,0.52-11.4c1.21-7.905,3.412-15.587,5.25-23.351
				c0.06-0.252-0.924-0.401-0.994-0.102c-1.841,7.772-3.959,15.453-5.25,23.352c-0.622,3.803-0.946,7.561-0.521,11.399
				c0.381,3.438,1.257,6.806,1.759,10.227c2.185,14.903-10.24,25.407-14.238,38.772C199.766,339.611,200.74,339.78,200.83,339.478
				L200.83,339.478z"/>
		</g>
	</g>
	<g>
		<g>
			<path d="M234.333,298.682c0.248-3.939,0.554-7.859,1.25-11.75c0.044-0.246-0.944-0.318-1-0.01c-0.696,3.89-1.002,7.81-1.25,11.75
				C233.315,298.946,234.314,298.977,234.333,298.682L234.333,298.682z"/>
		</g>
	</g>
	<g>
		<g>
			<path d="M234.573,283.025c0.922-6.652,4.171-12.639,6.75-18.75c-0.327-0.065-0.653-0.131-0.98-0.196
				c0.277,3.335,0.708,6.649,0.75,10c0.004,0.319,0.983,0.437,0.98,0.196c-0.042-3.351-0.473-6.665-0.75-10
				c-0.024-0.292-0.861-0.478-0.98-0.196c-2.579,6.112-5.828,12.098-6.75,18.75C233.552,283.122,234.536,283.296,234.573,283.025
				L234.573,283.025z"/>
		</g>
	</g>
	<g>
		<g>
			<path d="M192.361,369.763c-2.046,6.675-3.646,17.631-11.153,20.427c-0.358,0.134,0.501,0.566,0.75,0.475
				c7.667-2.856,9.26-13.764,11.347-20.573C193.391,369.811,192.442,369.496,192.361,369.763L192.361,369.763z"/>
		</g>
	</g>
	<g>
		<g>
			<path d="M164.818,395.158c1.075-1.57,2.424-2.929,3.5-4.5c-0.327,0.031-0.653,0.062-0.979,0.092c0,1.167,0,2.333,0,3.5
				c0,0.255,0.989,0.164,0.989-0.146c0-1.167,0-2.333,0-3.5c0-0.313-0.871-0.066-0.979,0.092c-1.075,1.57-2.424,2.929-3.5,4.5
				C163.716,395.388,164.646,395.41,164.818,395.158L164.818,395.158z"/>
		</g>
	</g>
	<g>
		<g>
			<path d="M208.574,370.771c-0.614-4.687-0.481-9.473-1.758-14.056c-0.076-0.273-1.048-0.368-0.967-0.076
				c1.266,4.545,1.134,9.296,1.742,13.944C207.635,370.911,208.602,370.98,208.574,370.771L208.574,370.771z"/>
		</g>
	</g>
	<g>
		<g>
			<path d="M143.141,406.895c0.918,1.42,1.788,2.889,2.466,4.439c0.087,0.199,0.748,0.511,0.92,0.287
				c2.042-2.651,5.208-4.098,7.25-6.75c-0.307-0.096-0.614-0.191-0.92-0.287c0.577,1.212,0.638,2.953,2.416,3.083
				c2.282,0.166,3.139-3.279,4.255-4.546c0.205-0.232-0.704-0.599-0.889-0.389c-0.637,0.723-1.051,1.488-1.457,2.361
				c-0.291,0.625-0.71,1.097-1.241,1.523c-1.477,1.185-1.855-1.266-2.132-1.848c-0.093-0.194-0.745-0.515-0.92-0.287
				c-2.042,2.651-5.208,4.098-7.25,6.75c0.307,0.096,0.614,0.191,0.92,0.287c-0.696-1.589-1.593-3.105-2.534-4.561
				C143.881,406.736,142.933,406.572,143.141,406.895L143.141,406.895z"/>
		</g>
	</g>
	<g>
		<g>
			<path d="M179.4,398.774c3.72,3.582,8.274,5.494,13.431,5.603c0.592,0.013,0.593-0.388,0.004-0.4
				c-4.864-0.103-9.096-2.052-12.569-5.397C180.076,398.396,179.117,398.501,179.4,398.774L179.4,398.774z"/>
		</g>
	</g>
	<g>
		<g>
			<path d="M192.896,397.145c2.8-0.479,5.675,0.014,8.393,0.728c0.574,0.15,0.658-0.241,0.09-0.391
				c-2.941-0.771-6.078-1.291-9.107-0.772C191.755,396.798,192.646,397.188,192.896,397.145L192.896,397.145z"/>
		</g>
	</g>
	<g>
		<g>
			<path d="M361.39,228.198c4.369,4.687,7.77,10.368,13.32,13.804c0.144,0.089,0.713,0.277,0.838,0.064
				c0.39-0.667,0.257-1.357,0.527-2.049c-0.22,0.025-0.438,0.051-0.657,0.076c7.813,2.13,15.552,2.452,23.487,0.787
				c-0.271-0.098-0.543-0.195-0.814-0.292c-3.521,8.743-4.739,18.179-7.527,27.15c-1.45,4.667-3.452,9.163-6.445,13.051
				c-2.729,3.545-7.471,5.366-11,8c-0.187,0.139,0.685,0.46,0.93,0.277c3.61-2.693,7.969-4.586,11-8
				c2.874-3.237,4.631-7.688,6.028-11.713c3.251-9.365,4.283-19.363,7.999-28.586c0.104-0.257-0.698-0.317-0.814-0.292
				c-7.608,1.596-15.015,1.331-22.513-0.713c-0.154-0.042-0.573-0.138-0.657,0.076c-0.257,0.658-0.09,1.296-0.473,1.951
				c0.279,0.021,0.559,0.042,0.838,0.064c-5.494-3.402-8.855-9.058-13.18-13.696C362.095,227.961,361.136,227.925,361.39,228.198
				L361.39,228.198z"/>
		</g>
	</g>
	<g>
		<g>
			<path d="M354.606,280.017c3.32,5.017,7.37,9.467,11,14.25c0.179,0.235,1.121,0.042,0.953-0.18c-3.629-4.783-7.68-9.233-11-14.25
				C355.4,279.596,354.445,279.772,354.606,280.017L354.606,280.017z"/>
		</g>
	</g>
	<g>
		<g>
			<path d="M355.332,259.394c0.124-1.1,0.003-2.175-0.25-3.25c-0.308,0.054-0.615,0.108-0.923,0.163
				c0.651,0.307,1.188,0.949,1.696,1.456c0.146,0.145,1.008,0.199,0.977-0.118c-0.476-4.824-0.524-9.676-1-14.5
				c-0.281,0.066-0.562,0.132-0.843,0.198c2.298,0.883,4.364,2.151,6.477,3.395c2.023,1.191,4.532,1.533,6.249,3.188
				c2.375,2.289,2.692,5.91,5.944,7.383c0.239,0.108,1.159-0.118,0.848-0.259c-3.475-1.574-3.887-5.856-6.761-8.093
				c-1.729-1.345-4.247-1.78-6.145-2.896c-1.93-1.135-3.831-2.241-5.925-3.046c-0.141-0.054-0.87-0.08-0.843,0.198
				c0.476,4.824,0.524,9.676,1,14.5c0.325-0.04,0.651-0.079,0.977-0.118c-0.539-0.536-1.104-1.215-1.804-1.544
				c-0.127-0.06-0.994-0.14-0.923,0.163c0.254,1.075,0.374,2.149,0.25,3.25C354.307,259.706,355.297,259.707,355.332,259.394
				L355.332,259.394z"/>
		</g>
	</g>
	<g>
		<g>
			<path d="M378.776,295.907c-3.016-2.618-3.085-8.393-7.656-9.177c-0.58-0.1-0.658,0.293-0.074,0.393
				c3.784,0.649,4.249,6.569,6.844,8.823C378.089,296.119,379.041,296.138,378.776,295.907L378.776,295.907z"/>
		</g>
	</g>
	<g>
		<g>
			<path d="M353.587,284.239c3.306,12.959,6.835,25.839,12.5,38c0.125,0.269,0.955,0.182,0.992-0.125
				c0.143-1.168,0.107-2.332,0.25-3.5c-0.322,0.059-0.646,0.117-0.968,0.176c1.3,1.803,2.817,3.455,4.282,5.123
				c0.77,0.876,1.544,1.748,2.313,2.625c0.23,0.263,1.28,1.154,1.27,1.539c0.304-0.071,0.607-0.144,0.911-0.216
				c-0.027-0.016-0.055-0.032-0.082-0.048c-0.246-0.182-1.117,0.098-0.943,0.227c0.063,0.047,0.122,0.098,0.194,0.129
				c0.188,0.082,0.902,0.102,0.912-0.216c0.025-0.866-2.387-2.855-2.913-3.452c-1.706-1.933-3.49-3.843-5-5.938
				c-0.154-0.214-0.934-0.107-0.968,0.176c-0.143,1.168-0.107,2.332-0.25,3.5c0.331-0.042,0.661-0.083,0.992-0.125
				c-5.665-12.161-9.194-25.041-12.5-38C354.503,283.816,353.522,283.987,353.587,284.239L353.587,284.239z"/>
		</g>
	</g>
	<g>
		<g>
			<path d="M327.91,385.31c7.741,3.469,12.656,10.241,18.215,16.329c2.501,2.738,5.231,5.231,8.364,7.229
				c4.062,2.59,8.99,4.33,13.502,5.977c0.131,0.049,0.991,0.035,0.818-0.256c-0.785-1.325-1.445-2.713-2.142-4.086
				c-0.559-1.101-1.602-2.182-1.566-3.439c0.071-2.554,0.129-5.142-0.27-7.673c-0.308,0.057-0.615,0.113-0.922,0.17
				c2.304,1.322,4.935,1.031,7.331,2.034c0.148,0.063,0.855,0.071,0.841-0.204c-0.39-7.138-1.442-14.279-3.519-21.129
				c-0.325,0.042-0.65,0.084-0.976,0.126c2.817,2.417,5.712,5.016,9.595,5.197c0.094,0.005,0.671-0.033,0.617-0.239
				c-1.626-6.156-6.274-10.998-8.393-17.007c-1.155-3.275-1.845-6.71-2.65-10.082c-0.782-3.272-2.093-6.358-1.942-9.778
				c-0.308,0.057-0.615,0.113-0.922,0.17c1.004,0.727,1.882,1.501,3.061,1.918c0.172,0.062,0.823,0.08,0.841-0.204
				c0.097-1.631-0.233-3.06-0.718-4.607c-0.086-0.274-1-0.222-0.998,0.074c0.002,0.295,0.004,0.591,0.006,0.886
				c0.002,0.272,1,0.224,0.998-0.074c-0.002-0.295-0.004-0.591-0.006-0.886c-0.333,0.024-0.665,0.05-0.998,0.074
				c0.485,1.549,0.815,2.977,0.718,4.607c0.28-0.068,0.561-0.137,0.841-0.204c-1.125-0.398-1.953-1.165-2.898-1.85
				c-0.165-0.12-0.908-0.124-0.922,0.17c-0.137,3.131,0.946,5.938,1.732,8.919c0.89,3.37,1.556,6.784,2.589,10.117
				c1.985,6.405,6.964,11.391,8.664,17.831c0.206-0.08,0.412-0.159,0.617-0.239c-3.57-0.167-6.316-2.773-8.878-4.971
				c-0.138-0.118-1.065-0.17-0.976,0.126c2.077,6.851,3.129,13.991,3.519,21.129c0.28-0.068,0.561-0.137,0.841-0.204
				c-2.331-0.977-4.931-0.681-7.169-1.966c-0.141-0.081-0.969-0.131-0.922,0.17c0.399,2.532,0.338,5.118,0.271,7.673
				c-0.032,1.186,0.645,1.801,1.237,2.841c0.892,1.568,1.593,3.234,2.515,4.788c0.272-0.085,0.546-0.171,0.818-0.256
				c-4.72-1.723-9.68-3.574-13.933-6.286c-3.46-2.207-6.326-5.24-9.036-8.286c-5.076-5.708-9.805-11.691-16.95-14.894
				C328.517,384.937,327.597,385.169,327.91,385.31L327.91,385.31z"/>
		</g>
	</g>
	<g>
		<g>
			<path d="M359.175,336.35c3.191,1.824,6.56,3.236,10.084,4.276c0.246,0.073,1.155-0.249,0.648-0.398
				c-3.469-1.024-6.776-2.43-9.916-4.224C359.761,335.872,358.843,336.159,359.175,336.35L359.175,336.35z"/>
		</g>
	</g>
	<g>
		<g>
			<path d="M367.079,336.86c0.277-3.078-1.052-7.035-4.082-8.341c-0.242-0.104-1.153,0.175-0.828,0.314
				c2.953,1.272,4.188,5.164,3.918,8.159C366.066,337.229,367.05,337.18,367.079,336.86L367.079,336.86z"/>
		</g>
	</g>
	<g>
		<g>
			<path d="M114.219,80.565c-6.072,2.669-12.374-2.983-18.399-3.582c-0.296-0.029-1.115,0.323-0.474,0.387
				c6.664,0.662,12.775,6.418,19.601,3.418C115.417,80.581,114.446,80.466,114.219,80.565L114.219,80.565z"/>
		</g>
	</g>
	<g>
		<g>
			<path d="M96.313,81.376c7.113,1.034,13.759,4.122,21,4.5c0.584,0.03,0.633-0.367,0.039-0.398c-7.231-0.377-13.891-3.466-21-4.5
				C95.764,80.892,95.735,81.292,96.313,81.376L96.313,81.376z"/>
		</g>
	</g>
	<g>
		<g>
			<path d="M126.229,64.387c5.158-0.032,10.281-0.516,15.383-1.262c0.156-0.023,0.745-0.295,0.3-0.389
				c-3.296-0.694-6.619-0.767-9.976-0.769c-0.433,0-0.887,0.42-0.207,0.42c1.734,0.001,3.465,0.019,5.197,0.119
				c1.156,0.067,2.3,0.229,3.44,0.426c0.898,0.155-1.663,0.193-1.649,0.191c-4.073,0.536-8.174,0.819-12.282,0.844
				C126.004,63.969,125.549,64.391,126.229,64.387L126.229,64.387z"/>
		</g>
	</g>
	<g>
		<g>
			<path d="M112.192,61.134c4.417,0.162,8.869-0.79,12.808-2.806c0.325-0.166-0.597-0.425-0.833-0.304
				c-3.754,1.921-7.979,2.849-12.192,2.694C111.291,60.694,111.768,61.119,112.192,61.134L112.192,61.134z"/>
		</g>
	</g>
	<g>
		<g>
			<path d="M90.401,235.742c2.385-3.581,2.217-8.031-0.099-11.605c-0.152-0.235-1.106-0.012-0.938,0.247
				c2.276,3.511,2.409,7.879,0.068,11.395C89.301,235.976,90.232,235.996,90.401,235.742L90.401,235.742z"/>
		</g>
	</g>
	<g>
		<g>
			<path d="M89.651,236.077c-2.68-3.481-2.629-7.424-0.258-11.061c0.161-0.246-0.796-0.42-0.953-0.179
				c-2.405,3.688-2.482,7.734,0.242,11.273C88.868,236.352,89.796,236.266,89.651,236.077L89.651,236.077z"/>
		</g>
	</g>
	<g>
		<g>
			<path d="M59.735,345.025c-2.569-4.453-6.271-8.593-10.043-12.054c-0.196-0.18-1.153-0.171-0.884,0.076
				c3.75,3.441,7.407,7.524,9.957,11.946C58.916,345.255,59.862,345.247,59.735,345.025L59.735,345.025z"/>
		</g>
	</g>
	<g>
		<g>
			<path d="M74.956,368.932c-2.561-1.91-5.054-4.079-8.14-5.078c-0.768-0.249-1.758-0.266-2.521,0.011
				c-3.049,1.104-4.296-0.743-6.176-2.511c-0.137-0.129-0.777-0.346-0.909-0.111c-0.486,0.869-2.129,3.674-3.56,1.517
				c-0.155-0.235-0.646-0.321-0.892-0.205c-2.083,0.979-4.723,4.78-6.884,1.498c-0.991-1.506-1.363-3.258-2.849-4.399
				c-0.208-0.16-1.155-0.158-0.886,0.049c2.223,1.709,2.208,5.366,5.172,6.229c2.629,0.765,4.181-2.05,6.262-3.028
				c-0.297-0.068-0.595-0.137-0.892-0.205c1.759,2.654,4.165,1.128,5.459-1.183c-0.303-0.037-0.605-0.074-0.909-0.111
				c1.804,1.696,2.955,3.59,5.634,3.548c0.404-0.006,0.853-0.205,1.226-0.342c2.044-0.75,3.684-0.001,5.352,1.017
				c1.674,1.021,3.197,2.292,4.767,3.463C74.417,369.242,75.38,369.248,74.956,368.932L74.956,368.932z"/>
		</g>
	</g>
	<g>
		<g>
			<path d="M65.214,378.915c2.704-0.385,5.247-1.287,7.753-2.35c0.354-0.149-0.523-0.547-0.768-0.443
				c-2.449,1.038-4.935,1.94-7.58,2.316C64.098,378.513,64.96,378.951,65.214,378.915L65.214,378.915z"/>
		</g>
	</g>
	<g>
		<g>
			<path d="M44.441,384.248c-0.175-0.321-0.344-0.409-0.506-0.263c-0.099,0.074-0.258,0.104-0.374,0.139
				c-0.399,0.118-0.824,0.148-1.237,0.179c-1.912,0.145-3.861-0.293-5.683-0.817c-0.566-0.163-0.685,0.219-0.116,0.383
				c2.336,0.672,5.013,1.287,7.451,0.779c0.96-0.199,1.302-0.817,0.083-0.876C43.412,383.74,44.137,384.233,44.441,384.248
				L44.441,384.248z"/>
		</g>
	</g>
	<g>
		<g>
			<path d="M34.165,388.492c3.135,1.234,6.643,1.37,9.974,1.391c0.43,0.003,0.904-0.408,0.222-0.412
				c-3.106-0.02-6.434-0.123-9.36-1.275C34.757,388.1,33.848,388.367,34.165,388.492L34.165,388.492z"/>
		</g>
	</g>
	<g>
		<g>
			<path d="M168.475,408.048c3.314,3.222,7.481,5.605,11.488,7.844c3.822,2.135,7.834,4.235,12.013,5.588
				c0.281,0.091,1.162-0.071,0.549-0.27c-4.125-1.335-8.035-3.411-11.821-5.496c-3.967-2.185-8.08-4.566-11.345-7.74
				C169.168,407.788,168.208,407.789,168.475,408.048L168.475,408.048z"/>
		</g>
	</g>
	<g>
		<g>
			<path d="M134.766,432.979c0.737,1.847,2.097,3.561,3.224,5.178c1.533,2.202,3.185,4.377,5.15,6.213
				c0.099,0.092,0.971,0.35,0.935,0.063c-0.266-2.139-0.009-4.218,0.333-6.334c-0.312-0.021-0.623-0.042-0.935-0.063
				c1.356,1.712,3.137,3.547,5.408,3.84c0.58,0.074,0.66-0.318,0.069-0.395c-1.903-0.245-3.467-2.073-4.592-3.494
				c-0.114-0.144-0.889-0.35-0.935-0.063c-0.343,2.115-0.6,4.194-0.333,6.334c0.312,0.021,0.623,0.042,0.935,0.063
				c-2.09-1.951-3.801-4.28-5.429-6.619c-1.01-1.449-2.202-3.005-2.863-4.658C135.625,432.77,134.661,432.717,134.766,432.979
				L134.766,432.979z"/>
		</g>
	</g>
	<g>
		<g>
			<path d="M107.766,417.7c2.258,4.644,6.633,11.86,12.829,9.141c0.485-0.213-0.452-0.43-0.688-0.326
				c-5.424,2.382-9.287-4.986-11.171-8.859C108.608,417.395,107.638,417.438,107.766,417.7L107.766,417.7z"/>
		</g>
	</g>
	<g>
		<g>
			<path d="M42.461,340.511c-1.032,1.031-2.065,2.063-3.207,2.974c-0.49,0.39-1.015,0.742-1.605,0.959
				c-0.718,0.264-0.592-1.727-0.581-1.979c0.015-0.317-0.959-0.483-0.971-0.24c-0.067,1.463,0.28,2.996,2.077,2.691
				c0.827-0.14,1.587-0.776,2.219-1.279c1.063-0.847,2.019-1.832,2.978-2.792C43.573,340.644,42.668,340.304,42.461,340.511
				L42.461,340.511z"/>
		</g>
	</g>
	<g>
		<g>
			<path d="M25.437,339.94c-2.122,3.459-4.814,6.465-7.667,9.334c-0.165,0.166,0.745,0.356,0.96,0.141
				c2.852-2.87,5.544-5.875,7.667-9.334C26.549,339.833,25.588,339.693,25.437,339.94L25.437,339.94z"/>
		</g>
	</g>
	<g>
		<g>
			<path d="M24.807,328.813c-1.242,0.631-2.424,1.37-3.667,2c-0.197,0.1,0.612,0.535,0.886,0.396c1.242-0.63,2.425-1.369,3.667-2
				C25.89,329.108,25.08,328.674,24.807,328.813L24.807,328.813z"/>
		</g>
	</g>
	<g>
		<path d="M28.917,318.011c-2.667-0.333-5-1.666-6.333-4"/>
	</g>
	<g>
		<g>
			<path d="M30.991,315.837c-1.87-0.671-3.443-1.967-5.417-2.359c0.017,0.093,0.033,0.186,0.049,0.278
				c1.305-0.939,2.759-1.545,4.329-1.881c0.573-0.123,0.512-0.519-0.069-0.395c-1.803,0.387-3.501,1.037-5.005,2.119
				c-0.149,0.107-0.153,0.238,0.049,0.278c1.909,0.38,3.438,1.657,5.25,2.307C30.423,316.273,31.319,315.954,30.991,315.837
				L30.991,315.837z"/>
		</g>
	</g>
	<g>
		<g>
			<path d="M88.77,229.274c0.059,0.569,0.094,1.042,0.333,1.568c0.098,0.216,0.839,0.486,0.964,0.196
				c0.11-0.266,0.227-0.529,0.351-0.79c-0.323-0.084-0.645-0.168-0.968-0.252c-0.009,0.146-0.017,0.291-0.026,0.436
				c0.323,0.084,0.645,0.168,0.968,0.252c-0.005-0.213,0.073-0.372,0.236-0.476c-0.313-0.1-0.625-0.199-0.937-0.299
				c-0.078,0.522-0.162,1.034-0.274,1.549c0.323,0.084,0.645,0.168,0.968,0.252c0.167-1.171,0.431-2.318,0.682-3.473
				c-0.323-0.084-0.645-0.168-0.968-0.252c-0.056,0.731-0.171,1.421-0.349,2.131c0.323,0.084,0.645,0.168,0.968,0.252
				c-0.003-0.865,0.065-1.701,0.284-2.539c-0.323-0.084-0.645-0.168-0.968-0.252c-0.252,1.337-0.758,2.588-1.192,3.873
				c0.323,0.084,0.645,0.168,0.968,0.252c-0.072-1.222,0.083-2.325,0.534-3.465c-0.323-0.084-0.645-0.168-0.968-0.252
				c-0.597,1.529-1.189,3.053-1.625,4.637c0.323,0.084,0.645,0.168,0.968,0.252c0.085-1.597,0.705-3.239,1.275-4.719
				c-0.321-0.065-0.643-0.13-0.964-0.196c0.15,1.486-0.285,2.814-0.854,4.164c0.321,0.065,0.643,0.13,0.964,0.196
				c-0.195-1.777,0.263-3.452,0.678-5.163c-0.321-0.065-0.643-0.13-0.964-0.196c0.076,0.771,0.055,1.402-0.103,2.155
				c0.323,0.084,0.645,0.168,0.968,0.252c-0.068-1.099,0.039-2.082,0.375-3.13c-0.323-0.084-0.645-0.168-0.968-0.252
				c-0.377,1.359-0.985,2.576-1.708,3.781c0.323,0.084,0.645,0.168,0.968,0.252c0.125-0.775,0.298-1.475,0.625-2.19
				c-0.323-0.084-0.645-0.168-0.968-0.252c-0.539,1.183-1.129,2.341-1.631,3.541c0.323,0.084,0.645,0.168,0.968,0.252
				c0.206-0.895,0.543-1.716,0.947-2.538c-0.323-0.084-0.645-0.168-0.968-0.252c-0.098,1.314-0.288,2.593-0.607,3.872
				c0.323,0.084,0.645,0.168,0.968,0.252c0.074-0.975,0.291-1.876,0.609-2.798c-0.323-0.084-0.645-0.168-0.968-0.252
				c0.045,0.86,0.088,1.718,0.094,2.579c0.002,0.302,0.942,0.511,0.968,0.252c0.09-0.911,0.211-1.818,0.3-2.729
				c-0.323-0.084-0.645-0.168-0.968-0.252c-0.018,0.252-0.021,0.504-0.012,0.756c0.323,0.084,0.645,0.168,0.968,0.252
				c-0.049-1.727,0.032-3.7,1.328-4.993c0.204-0.203-0.7-0.552-0.906-0.346c-1.33,1.327-1.44,3.309-1.39,5.087
				c0.009,0.323,0.97,0.48,0.968,0.252c-0.009-0.252-0.005-0.505,0.012-0.756c0.013-0.308-0.943-0.506-0.968-0.252
				c-0.089,0.911-0.21,1.818-0.3,2.729c0.323,0.084,0.645,0.168,0.968,0.252c-0.006-0.861-0.049-1.719-0.094-2.579
				c-0.015-0.28-0.868-0.542-0.968-0.252c-0.318,0.923-0.535,1.824-0.609,2.798c-0.022,0.292,0.899,0.527,0.968,0.252
				c0.319-1.279,0.51-2.558,0.607-3.872c0.022-0.296-0.838-0.516-0.968-0.252c-0.404,0.822-0.741,1.644-0.947,2.538
				c-0.064,0.279,0.855,0.521,0.968,0.252c0.502-1.2,1.092-2.357,1.631-3.541c0.103-0.227-0.837-0.538-0.968-0.252
				c-0.327,0.716-0.5,1.415-0.625,2.19c-0.049,0.301,0.822,0.495,0.968,0.252c0.723-1.205,1.332-2.422,1.708-3.781
				c0.075-0.271-0.879-0.53-0.968-0.252c-0.336,1.049-0.443,2.032-0.375,3.13c0.018,0.28,0.908,0.539,0.968,0.252
				c0.163-0.777,0.172-1.484,0.095-2.268c-0.023-0.238-0.9-0.46-0.964-0.196c-0.425,1.754-0.87,3.459-0.67,5.275
				c0.027,0.25,0.857,0.448,0.964,0.196c0.587-1.394,1.001-2.753,0.847-4.276c-0.025-0.247-0.865-0.452-0.964-0.196
				c-0.57,1.48-1.19,3.122-1.275,4.719c-0.016,0.29,0.891,0.53,0.968,0.252c0.436-1.584,1.027-3.108,1.625-4.637
				c0.095-0.244-0.855-0.536-0.968-0.252c-0.451,1.14-0.606,2.243-0.534,3.465c0.017,0.279,0.869,0.543,0.968,0.252
				c0.435-1.285,0.94-2.536,1.192-3.873c0.054-0.287-0.896-0.525-0.968-0.252c-0.219,0.838-0.287,1.675-0.284,2.539
				c0.001,0.286,0.897,0.534,0.968,0.252c0.178-0.711,0.293-1.401,0.349-2.131c0.022-0.294-0.909-0.524-0.968-0.252
				c-0.251,1.155-0.515,2.302-0.682,3.473c-0.042,0.293,0.909,0.522,0.968,0.252c0.113-0.516,0.197-1.028,0.274-1.549
				c0.044-0.3-0.759-0.455-0.937-0.299c-0.251,0.22-0.305,0.231-0.298,0.57c0.006,0.308,0.953,0.502,0.968,0.252
				c0.009-0.146,0.017-0.291,0.026-0.436c0.018-0.294-0.844-0.521-0.968-0.252c-0.124,0.261-0.24,0.523-0.351,0.79
				c0.321,0.065,0.643,0.13,0.964,0.196c-0.239-0.526-0.274-0.999-0.333-1.568C89.702,229.144,88.737,228.954,88.77,229.274
				L88.77,229.274z"/>
		</g>
	</g>
	<g>
		<g>
			<path d="M89.067,234.317c0.116-0.292,1.037-2.194,0.241-2.368c-0.598-0.131-1.002,0.247-1.209,0.754
				c0.326-0.036,0.652-0.073,0.978-0.109c-0.074-0.08-0.101-0.167-0.08-0.26c-0.32,0.071-0.64,0.143-0.96,0.214
				c0.342,0.412,0.353,1.044,0.387,1.544c0.019,0.277,0.904,0.109,0.978-0.109c0.318-0.951,0.138-1.861,0.958-2.611
				c-0.309,0-0.618-0.001-0.927-0.001c-0.138,0.423-0.729,1.733-0.316,2.105c0.193,0.174,0.928,0.096,0.96-0.214
				c0.067-0.651,0.334-1.429,0.879-1.836c-0.289,0-0.577,0.001-0.865,0.001c0,0.444,0,0.889,0,1.333
				c0,0.251,0.982,0.147,0.986-0.165c0.004-0.276-0.043-0.98,0.337-1.082c-0.216-0.047-0.432-0.094-0.647-0.142
				c-0.185,0.186-0.37,0.372-0.555,0.559c0.289,0,0.577-0.001,0.865-0.001c0.037-2.003,0.308-3.995,0.333-6
				c0.003-0.258-0.948-0.134-0.986,0.165c-0.321,2.506-0.797,4.899-1.658,7.278c0.323-0.018,0.646-0.036,0.969-0.054
				c0.109-0.511-0.597-0.6-0.207,0.015c0.116,0.183,0.291,0.233,0.5,0.222c0.65-0.036,0.701-0.377,0.716-0.959
				c-0.329,0.055-0.658,0.11-0.986,0.165c0,0.216,0,0.432,0,0.648c0,0.389,0.252,0.113-0.329,0.387
				c-0.647,0.305-1.238,0.663-1.662,1.243c0.323-0.018,0.646-0.036,0.969-0.054c1.185-2.791,1.695-5.721,2.333-8.667
				c0.067-0.311-0.911-0.214-0.969,0.054c-0.638,2.946-1.148,5.876-2.333,8.667c-0.126,0.298,0.831,0.135,0.969-0.054
				c0.422-0.579,1.152-0.913,1.793-1.178c0.088-0.037,0.216-0.099,0.216-0.211c0-0.333,0-0.667,0-1c0-0.252-0.979-0.146-0.986,0.165
				c-0.078,0.189-0.047,0.34,0.092,0.453c0.248-0.001,0.497-0.002,0.745-0.003c-0.308-0.234-0.346-0.712-0.805-0.742
				c-0.658-0.042-0.897,0.311-1.023,0.903c-0.067,0.316,0.877,0.198,0.969-0.054c0.873-2.411,1.351-4.853,1.675-7.389
				c-0.329,0.055-0.658,0.11-0.986,0.165c-0.026,2.005-0.297,3.996-0.333,6c-0.005,0.277,0.762,0.063,0.865-0.001
				c0.474-0.295,0.416-0.275,0.779-0.774c0.165-0.226-0.595-0.156-0.647-0.142c-0.819,0.221-0.985,0.769-0.997,1.584
				c0.329-0.055,0.658-0.11,0.986-0.165c0-0.444,0-0.889,0-1.333c0-0.27-0.761-0.077-0.865,0.001
				c-0.7,0.522-1.032,1.298-1.121,2.164c0.32-0.072,0.64-0.143,0.96-0.214c-0.304-0.273,0.234-1.537,0.351-1.895
				c0.11-0.337-0.804-0.114-0.927-0.001c-0.863,0.789-0.697,1.691-1.042,2.722c0.326-0.036,0.652-0.073,0.978-0.109
				c-0.037-0.549-0.069-1.196-0.439-1.643c-0.173-0.208-0.924-0.07-0.96,0.214c-0.021,0.093,0.005,0.18,0.08,0.261
				c0.114,0.271,0.879,0.131,0.978-0.109c0.095-0.105,0.121-0.217,0.078-0.334c-0.21-0.012-0.419-0.024-0.629-0.037
				c0.451,0.339-0.271,1.722-0.417,2.092C87.994,234.636,88.959,234.589,89.067,234.317L89.067,234.317z"/>
		</g>
	</g>
	<g>
		<g>
			<path d="M253.104,236.104c2.422,5.038,3.284,11.083,4.438,16.5c1.483,6.974,2.786,13.986,4.063,21
				c0.045,0.248,0.967,0.437,0.963,0.202c-0.128-6.884-3.459-12.652-5.504-19.056c-0.09-0.281-1.044-0.411-0.959-0.146
				c2.033,6.365,5.369,12.096,5.496,18.944c0.321,0.067,0.642,0.135,0.963,0.202c-1.276-7.015-2.591-14.023-4.063-21
				c-1.143-5.416-2.018-11.465-4.438-16.5C253.931,235.976,252.998,235.884,253.104,236.104L253.104,236.104z"/>
		</g>
	</g>
	<g>
		<g>
			<path d="M242.58,249.233c0.013-0.643-0.785-0.818-0.456-0.117c0.243,0.517,0.417,1.069,0.599,1.61
				c0.545,1.629,0.992,3.293,1.426,4.955c0.443,1.7,0.854,3.413,1.178,5.141c0.089,0.474,0.168,0.953,0.196,1.435
				c0.033,0.557,0.917,0.634,0.546-0.079c-0.138-0.263-1.097-0.245-0.971-0.003c0.269,0.514,1.43,1.219,1.418,0.194
				c-0.024-2.199-0.855-4.579-1.397-6.686c-0.575-2.237-1.109-4.616-2.096-6.717c-0.386-0.822-1.416-0.866-1.437,0.154
				C241.58,249.423,242.574,249.5,242.58,249.233L242.58,249.233z"/>
		</g>
	</g>
	<g>
		<g>
			<path d="M261.579,224.618c0-0.167,0-0.333,0-0.5c0-0.261-0.992-0.188-0.992,0.118c0,0.167,0,0.333,0,0.5
				C260.587,224.997,261.579,224.924,261.579,224.618L261.579,224.618z"/>
		</g>
	</g>
	<g>
		<g>
			<path d="M94.471,272.391c14.13-3.135,26.467-11,37.562-20.032c0.208-0.17-0.668-0.552-0.899-0.364
				c-11.061,9.005-23.351,16.842-37.438,19.968C93.36,272.037,94.215,272.448,94.471,272.391L94.471,272.391z"/>
		</g>
	</g>
	<g>
		<g>
			<path d="M156.802,91.297c17.931,9.159,35.4,19.19,52.811,29.293c8.7,5.049,17.384,10.127,26.097,15.156
				c7.415,4.28,14.388,9.195,22.706,11.594c0.408,0.118,0.993-0.137,0.336-0.326c-8.718-2.515-16.129-7.845-23.903-12.336
				c-8.724-5.039-17.419-10.126-26.133-15.181c-16.925-9.817-33.922-19.537-51.351-28.44
				C157.09,90.917,156.224,91.001,156.802,91.297L156.802,91.297z"/>
		</g>
	</g>
	<g>
		<g>
			<path d="M137.526,65.369c21.195,6.016,42.721,11.979,61.818,23.291c9.772,5.788,18.613,12.998,26.539,21.115
				c8.74,8.952,15.694,19.364,25.821,26.938c0.2,0.15,1.172,0.24,0.758-0.069c-10.698-8.001-18.044-19.17-27.392-28.535
				c-7.707-7.722-16.361-14.434-25.746-19.992c-19.005-11.256-40.599-17.146-61.684-23.13
				C137.073,64.824,136.957,65.207,137.526,65.369L137.526,65.369z"/>
		</g>
	</g>
	<g>
		<g>
			<path d="M81.491,244.502c-1.044-0.688-2.164-1.259-3.228-1.916c-0.427-0.263-0.888-0.533-1.238-0.898
				c-0.251-0.262,0.131,0.006-0.422,0.001c0.388,0.003,0.78,0.105,1.156,0.188c0.222,0.048,0.503-0.003,0.696-0.123
				c0.166-0.103,0.139-0.238-0.049-0.279c-0.697-0.152-1.586-0.397-2.263-0.042c-0.495,0.259,0.12,0.696,0.356,0.873
				c1.306,0.979,2.816,1.648,4.175,2.544C80.896,244.996,81.819,244.719,81.491,244.502L81.491,244.502z"/>
		</g>
	</g>
	<g>
		<g>
			<path d="M273.568,402.677c-0.495-1.846-1.45-3.423-2.5-5c-0.168-0.252-1.107-0.206-0.971,0c1.051,1.576,2.005,3.153,2.5,5
				C272.669,402.94,273.65,402.985,273.568,402.677L273.568,402.677z"/>
		</g>
	</g>
	<g>
		<g>
			<path d="M211.765,444.923c11.949,1.964,24.04,2.944,36.106,1.503c0.524-0.063-0.321-0.528-0.576-0.498
				c-11.997,1.433-24.015,0.456-35.894-1.497C210.766,444.326,211.473,444.875,211.765,444.923L211.765,444.923z"/>
		</g>
	</g>
	<g>
		<g>
			<path d="M194.937,450.359c10.364,2.53,21.119,6.375,31.069,0.45c0.316-0.188-0.618-0.401-0.846-0.266
				c-9.612,5.723-19.954,1.886-29.931-0.55C194.808,449.892,194.276,450.198,194.937,450.359L194.937,450.359z"/>
		</g>
	</g>
	<g>
		<g>
			<path d="M365.456,223.876c1.558-0.081,3.106-0.128,4.666-0.057c1.197,0.055,2.339,0.281,3.493,0.587
				c1.362,0.362,2.416,1.288,3.729,1.672c-0.934-0.273-1.786-0.436-2.687-0.024c-0.309,0.141,0.613,0.353,0.852,0.244
				c0.817-0.374,1.695,0.438,2.538,0.247c0.06-0.014,0.271-0.056,0.256-0.161c-0.199-1.424-3.754-2.189-4.906-2.495
				c-2.645-0.702-5.485-0.553-8.187-0.413C364.528,223.513,365.029,223.898,365.456,223.876L365.456,223.876z"/>
		</g>
	</g>
	<g>
		<g>
			<path d="M364.286,228.906c3.424,0.028,6.764,0.373,10.045,1.398c0.784,0.245,3.548,0.567,1.577,0.689
				c-0.771,0.048-1.5,0.204-2.22,0.481c-0.344,0.133,0.541,0.501,0.789,0.406c0.901-0.347,1.847-0.462,2.809-0.474
				c0.287-0.004,0.379-0.204,0.084-0.335c-4.304-1.918-8.804-2.584-13.49-2.623C363.232,228.442,363.982,228.903,364.286,228.906
				L364.286,228.906z"/>
		</g>
	</g>
	<g>
		<g>
			<path d="M213.575,392.345c-0.07-0.064-0.15-0.098-0.24-0.098c-0.107-0.012-0.098,0.449-0.096,0.496
				c0.055,1.673,3.584,2.552,4.86,3.103c0.152,0.065,0.097-1.055,0.075-1.145c-0.463-1.877-0.941-3.748-1.534-5.589
				c-0.001,0.397-0.003,0.795-0.005,1.191c1.545-1.134,3.346-1.71,5.145-2.302c1.328-0.438,3.077-0.758,3.826-2.043
				c0.039-0.066,0.081-0.582-0.03-0.575c-1.347,0.087-3.115,1.172-4.443,1.59c-1.625,0.511-3.21,1.078-4.603,2.076
				c-0.234,0.167-0.074,0.973-0.005,1.191c0.563,1.783,1.005,3.6,1.466,5.411c0.025-0.382,0.051-0.763,0.075-1.145
				c-1.054-0.427-4.143-1.205-4.676-2.195c-0.001,0.302-0.002,0.603-0.004,0.903c0.05-0.097,0.124-0.17,0.224-0.22
				C213.71,392.92,213.686,392.404,213.575,392.345L213.575,392.345z"/>
		</g>
	</g>
	<g>
		<g>
			<path d="M224.58,361.271c3.085,4.939,7.98,9.146,12.491,12.745c0.083,0.067,0.089-0.313,0.089-0.342
				c-0.035-5.594-0.442-11.253-2.051-16.637c-0.05-0.169-0.066,0.22-0.053,0.277c0.755,3.356,1.375,6.689,1.698,10.118
				c0.156,1.654,0.202,3.316,0.241,4.976c0.026,1.136-2.854-1.509-3.006-1.641c-3.435-2.971-6.38-6.322-9.404-9.687
				C224.578,361.073,224.557,361.234,224.58,361.271L224.58,361.271z"/>
		</g>
	</g>
	<g>
		<g>
			<path d="M169.094,450.106c3.498,0.399,7.003,0.752,10.503,1.153c0.035-0.015,0.056-0.042,0.063-0.081
				c0.214-0.658,0.13-1.381-0.025-2.047c-0.224-0.961-0.498-1.905-0.795-2.846c-0.193-0.597-0.377-1.196-0.551-1.8
				c0.178,0.605,2.886,0.924,3.42,1.038c5.074,1.085,4.779-1.411,6.413-5.096c0.051-0.115-0.052-0.552-0.063-0.534
				c-0.761,1.24-0.858,2.724-1.599,3.961c-1.384,2.315-6.631,0.348-8.388-0.12c-0.111-0.029-0.076,0.615-0.067,0.666
				c0.247,1.396,0.784,2.762,1.157,4.129c0.575,2.104-3.009,1.067-4.094,0.939c-2.006-0.235-3.981-0.375-5.996-0.223
				C168.937,449.258,168.945,450.089,169.094,450.106L169.094,450.106z"/>
		</g>
	</g>
	<g>
		<g>
			<path d="M107.545,427.549c2.021,4.592,4.38,9.181,7.521,13.118c0.02,0.024,0.18-0.769,0.035-0.98
				c-2.825-4.131-5.371-8.332-7.479-12.882C107.547,426.646,107.474,427.388,107.545,427.549L107.545,427.549z"/>
		</g>
	</g>
	<g>
		<g>
			<path d="M91.084,215.716c8.273,0.632,16.463,0.667,24.513,3.008c0.076,0.022,0.216-1.011-0.027-1.094
				c-7.492-2.533-16.783-4.62-24.487-1.992C91.069,215.642,91.071,215.715,91.084,215.716L91.084,215.716z"/>
		</g>
	</g>
	<g>
		<g>
			<path d="M210.634,164.065c8.328,7.877,20.771,11.137,32,10c0.985-0.1,1.92-0.677,2.898-0.776c-11.23,1.137-23.673-2.123-32-10
				C213.138,162.916,211,164.412,210.634,164.065L210.634,164.065z"/>
		</g>
	</g>
	<g>
		<g>
			<path d="M280.577,318.024c1.192,2.114,2.42,3.719,2.82,6.231c0.392,2.455,0.125,5.016-0.189,7.463
				c-0.056,0.434,0.332,0.906,0.418,0.25c0.383-2.917,0.535-5.826,0.079-8.743c-0.248-1.587-1.139-5.117-3.122-5.234
				C280.571,317.99,280.574,318.02,280.577,318.024L280.577,318.024z"/>
		</g>
	</g>
	<g>
		<g>
			<path d="M279.457,321.483c-0.128-0.731-0.061-1.406,0.38-2.019c0.34-0.473,0.867-0.574,1.273-0.934
				c0.068-0.061,0.103-0.378-0.032-0.383c-0.687-0.025-1.324,0.862-1.581,1.415c-0.288,0.622-0.259,1.345-0.115,1.997
				C279.406,321.675,279.468,321.543,279.457,321.483L279.457,321.483z"/>
		</g>
	</g>
	<g>
		<g>
			<path d="M21.568,217.669c-4.07-5.177-9.619-10.527-16.405-6.633c-0.32,0.184,0.611,0.414,0.841,0.281
				c6.214-3.566,11.047,1.855,14.595,6.367C20.787,217.925,21.71,217.85,21.568,217.669L21.568,217.669z"/>
		</g>
	</g>
	<g>
		<g>
			<path d="M28.524,242.378c0.837-0.759,1.685-1.54,2.628-2.167c0.134-0.089,0.423-0.252,0.492-0.259
				c-0.982,0.095-0.57-0.516-0.631-0.168c-0.018,0.1-0.061,0.196-0.101,0.288c-0.275,0.63-0.715,1.203-1.119,1.754
				c-0.673,0.917-1.405,1.792-2.152,2.649c-0.207,0.236,0.701,0.611,0.883,0.402c0.843-0.966,1.658-1.958,2.408-2.998
				c0.365-0.507,0.966-1.195,1.041-1.845c0.073-0.643-0.983-0.61-1.36-0.428c-1.108,0.538-2.072,1.554-2.971,2.368
				C27.426,242.171,28.31,242.573,28.524,242.378L28.524,242.378z"/>
		</g>
	</g>
	<g>
		<g>
			<path d="M209.15,189.427c5.715,0.161,11.272,3.353,15.5,7c0.088,0.076,0.788-0.567,0.865-0.5c-4.227-3.647-9.784-6.839-15.5-7
				C209.729,188.918,209.43,189.435,209.15,189.427L209.15,189.427z"/>
		</g>
	</g>
	<g>
		<g>
			<path d="M224.15,209.927c9.091,4.353,17.097,10.726,23.5,18.5c0.039,0.048,0.836-0.537,0.865-0.5
				c-6.403-7.774-14.408-14.147-23.5-18.5C224.841,209.343,224.314,210.005,224.15,209.927L224.15,209.927z"/>
		</g>
	</g>
	<g>
		<g>
			<path d="M85.15,206.427c2.078,1.502,4.42,2.436,7,2.5c0.288,0.007,0.586-0.507,0.866-0.5c-2.58-0.064-4.922-0.998-7-2.5
				C85.9,205.843,85.255,206.502,85.15,206.427L85.15,206.427z"/>
		</g>
	</g>
	<g>
		<g>
			<path d="M327.15,372.927c0.292,0,0.581-0.5,0.865-0.5C327.724,372.427,327.435,372.927,327.15,372.927L327.15,372.927z"/>
		</g>
	</g>
	<g>
		<g>
			<path d="M329.016,383.427c0.455-9.241-0.037-18.443-2-27.5c0.021,0.093-0.889,0.394-0.865,0.5c1.962,9.057,2.454,18.259,2,27.5
				C328.158,383.753,329.007,383.613,329.016,383.427L329.016,383.427z"/>
		</g>
	</g>
	<g>
		<g>
			<path d="M325.15,335.427c0.054,5.765,1.017,11.438,2.5,17c-0.024-0.088,0.818-0.373,0.865-0.5c0.371-1,0.695-2.19,1.451-2.984
				c-0.246,0.144-0.492,0.287-0.737,0.431c0.385-0.219,2.074,3.279,2.921,3.554c0.217,0.07,0.659-0.567,0.865-0.5
				c-0.831-0.27-2.542-3.76-2.897-3.571c-1.498,0.794-1.86,1.932-2.468,3.571c0.288-0.167,0.577-0.333,0.865-0.5
				c-1.482-5.562-2.445-11.235-2.5-17C326.018,335.084,325.148,335.256,325.15,335.427L325.15,335.427z"/>
		</g>
	</g>
	<g>
		<g>
			<path d="M336.15,333.427c1.032,5.765,3.299,11.108,6.5,16c0.014,0.021,0.859-0.509,0.865-0.5c-3.2-4.892-5.467-10.235-6.5-16
				C337.035,333.031,336.129,333.309,336.15,333.427L336.15,333.427z"/>
		</g>
	</g>
	<g>
		<g>
			<path d="M311.15,178.927c8.854,0.497,17.69,2.048,25.71,5.979c8.285,4.061,14.628,10.854,18.79,19.021
				c-0.005-0.009,0.877-0.478,0.865-0.5c-4.1-8.045-10.202-14.508-18.211-18.727c-8.052-4.242-17.296-5.769-26.289-6.273
				C311.733,178.411,311.424,178.942,311.15,178.927L311.15,178.927z"/>
		</g>
	</g>
	<g>
		<g>
			<path d="M240.65,99.927c24.339-4.906,45.683,14.229,63,28.5c0.095,0.079,0.781-0.57,0.865-0.5
				c-17.316-14.271-38.66-33.406-63-28.5C241.204,99.49,240.957,99.865,240.65,99.927L240.65,99.927z"/>
		</g>
	</g>
	<g>
		<g>
			<path d="M87.65,436.927c-1.221,5.785-3.415,11.313-5,17c0.289-0.167,0.578-0.333,0.866-0.5c0.709-3.061-0.833-4.848-2-7.5
				c0.011,0.026-0.884,0.46-0.866,0.5c1.167,2.652,2.709,4.439,2,7.5c0.051-0.22,0.802-0.271,0.866-0.5
				c1.585-5.688,3.779-11.215,5-17C88.471,436.639,87.697,436.703,87.65,436.927L87.65,436.927z"/>
		</g>
	</g>
	<g>
		<g>
			<path d="M64.15,441.427c0.434,2.361,1.233,4.641,3.151,6.194c1.925,1.56,4.604,1.372,6.849,0.806
				c0.313-0.079,0.557-0.422,0.866-0.5c-2.237,0.564-4.491,0.655-6.522-0.575c-2.186-1.324-3.045-4.069-3.478-6.425
				C65.035,441.029,64.128,441.31,64.15,441.427L64.15,441.427z"/>
		</g>
	</g>
	<g>
		<g>
			<path d="M125.516,470.927c-1.676-5.761-3.245-12.884-8.5-16.5c-0.124-0.085-0.754,0.577-0.866,0.5
				c5.255,3.616,6.824,10.739,8.5,16.5C124.63,471.357,125.54,471.01,125.516,470.927L125.516,470.927z"/>
		</g>
	</g>
	<g>
		<g>
			<path d="M131.15,503.927c1.421,1.209,3.928,3.792,6.036,2.976c1.352-0.522,1.986-1.6,2.33-2.976
				c-0.055,0.22-0.809,0.271-0.866,0.5c-0.224,0.896-0.499,1.769-1.252,2.355c0.216-0.126,0.433-0.253,0.649-0.38
				c-1.861,1.06-4.826-1.95-6.031-2.976C131.925,503.35,131.229,503.994,131.15,503.927L131.15,503.927z"/>
		</g>
	</g>
	<g>
		<g>
			<path d="M154.15,469.427c1.365,2.124,2.927,4.036,4.778,5.755c0.927,0.86,1.958,1.597,3.013,2.292
				c0.345,0.228,2.365,1.637,2.725,1.445c2.041-1.081,3.112-3.109,4.35-4.992c-0.162,0.246-0.701,0.248-0.866,0.5
				c-0.997,1.516-1.945,3.45-3.485,4.49c0.284-0.164,0.567-0.327,0.851-0.49c-4.439-2.074-7.867-5.402-10.5-9.5
				C155.003,468.907,154.154,469.434,154.15,469.427L154.15,469.427z"/>
		</g>
	</g>
	<g>
		<g>
			<path d="M212.15,418.927c4.141,0.851,8.348,1.346,12.57,1.527c4.382,0.188,9.081,0.059,13.115-1.834
				c1.179-0.552,2.897-1.444,3.017-2.846c0.236-2.751-6.865-4.675-8.686-5.373c-0.288,0.167-0.577,0.333-0.865,0.5
				c2.282,0.03,4.565,0.026,6.849,0.025c0.292,0,0.581-0.5,0.865-0.5c-2.282,0.001-4.565,0.005-6.849-0.025
				c-0.222-0.003-0.68,0.571-0.865,0.5c2.65,1.018,5.545,1.952,7.756,3.796c3.157,2.632-2.441,4.337-4.422,4.746
				c-6.949,1.435-14.746,0.396-21.62-1.017C212.767,418.376,212.389,418.976,212.15,418.927L212.15,418.927z"/>
		</g>
	</g>
	<g>
		<g>
			<path d="M240.512,304.79c2.627-2.308,4.646-4.979,5.353-8.452c0.795-3.905-0.883-7.9-2.798-11.201
				c-0.147-0.254-1.108-0.165-0.967,0.08c1.76,3.033,3.024,6.238,2.915,9.793c-0.119,3.878-2.567,7.101-5.36,9.554
				C239.359,304.822,240.313,304.964,240.512,304.79L240.512,304.79z"/>
		</g>
	</g>
	<g>
		<g>
			<path d="M223.21,434.873c10.108-1.026,20.153-2.539,30.12-4.517c0.635-0.125-0.197-0.419-0.494-0.359
				c-9.888,1.961-19.852,3.464-29.88,4.483C222.278,434.549,222.781,434.917,223.21,434.873L223.21,434.873z"/>
		</g>
	</g>
</g>
</svg>
