<?xml version="1.0" encoding="utf-8"?>
<!-- Generator: Adobe Illustrator 16.0.0, SVG Export Plug-In . SVG Version: 6.00 Build 0)  -->
<!DOCTYPE svg PUBLIC "-//W3C//DTD SVG 1.1//EN" "http://www.w3.org/Graphics/SVG/1.1/DTD/svg11.dtd">
<svg version="1.1" id="Layer_1" xmlns="http://www.w3.org/2000/svg" xmlns:xlink="http://www.w3.org/1999/xlink" x="0px" y="0px"
	 width="159.381px" height="41.396px" viewBox="-2.467 0 159.381 41.396" enable-background="new -2.467 0 159.381 41.396"
	 xml:space="preserve">
<g>
	<path fill="#FFFFFF" stroke="#FFFFFF" stroke-miterlimit="10" d="M20.414,38.642l-3.193,3.224L-2.467,25.428L17.221,8.992
		l3.193,3.252L4.447,25.369L20.414,38.642z"/>
	<path fill="#FFFFFF" stroke="#FFFFFF" stroke-miterlimit="10" d="M50.092,41.396l-0.117-3.955
		c-1.602,1.582-3.228,2.726-4.878,3.429c-1.651,0.703-3.384,1.056-5.2,1.056c-1.68,0-3.116-0.217-4.307-0.646
		s-2.173-1.021-2.944-1.771c-0.772-0.752-1.338-1.636-1.699-2.65c-0.362-1.016-0.542-2.119-0.542-3.311
		c0-2.949,1.099-5.261,3.296-6.931c2.197-1.671,5.444-2.505,9.741-2.505h6.094v-2.577c0-1.739-0.557-3.13-1.67-4.175
		c-1.113-1.044-2.813-1.567-5.098-1.567c-1.66,0-3.296,0.187-4.907,0.558c-1.611,0.371-3.277,0.897-4.995,1.582V13.33
		c0.645-0.233,1.362-0.464,2.153-0.688c0.791-0.223,1.626-0.424,2.505-0.601c0.879-0.176,1.797-0.317,2.754-0.425
		c0.957-0.108,1.923-0.161,2.9-0.161c1.777,0,3.379,0.195,4.805,0.586c1.425,0.392,2.632,0.986,3.618,1.787
		c0.986,0.802,1.743,1.808,2.271,3.019c0.527,1.211,0.791,2.637,0.791,4.277v20.273L50.092,41.396L50.092,41.396z M49.535,28.008
		H43.06c-1.27,0-2.363,0.127-3.281,0.382c-0.918,0.254-1.67,0.614-2.256,1.084c-0.586,0.469-1.021,1.028-1.304,1.684
		c-0.283,0.654-0.425,1.393-0.425,2.213c0,0.566,0.088,1.107,0.264,1.625c0.176,0.518,0.458,0.979,0.85,1.377
		c0.391,0.4,0.898,0.719,1.523,0.953s1.387,0.352,2.285,0.352c1.172,0,2.515-0.354,4.028-1.068c1.513-0.713,3.11-1.842,4.79-3.385
		L49.535,28.008L49.535,28.008z"/>
	<path fill="#FFFFFF" stroke="#FFFFFF" stroke-miterlimit="10" d="M64.183,11.981h4.541l0.205,4.746
		c0.859-1.015,1.689-1.86,2.49-2.534c0.801-0.674,1.586-1.216,2.358-1.626c0.771-0.41,1.557-0.698,2.358-0.864
		c0.801-0.166,1.631-0.249,2.49-0.249c3.027,0,5.318,0.894,6.871,2.681c1.553,1.787,2.328,4.479,2.328,8.072v19.188h-5.098V22.616
		c0-2.305-0.431-4.009-1.289-5.112c-0.859-1.103-2.14-1.656-3.838-1.656c-0.625,0-1.234,0.094-1.83,0.279
		c-0.597,0.186-1.216,0.508-1.861,0.967s-1.343,1.08-2.095,1.859c-0.752,0.781-1.597,1.758-2.534,2.93v19.513h-5.096V11.981
		L64.183,11.981z"/>
	<path fill="#FFFFFF" stroke="#FFFFFF" stroke-miterlimit="10" d="M107.191,4.188H98.49V0h13.857v37.147h8.76v4.248H97.523v-4.248
		h9.668V4.188z"/>
	<path fill="#FFFFFF" stroke="#FFFFFF" stroke-miterlimit="10" d="M131.596,12.244l3.164-3.252l19.688,16.436L134.76,41.864
		l-3.164-3.225l15.967-13.152L131.596,12.244z"/>
</g>
</svg>
