<?xml version="1.0" encoding="utf-8"?>
<!-- Generator: Adobe Illustrator 16.0.0, SVG Export Plug-In . SVG Version: 6.00 Build 0)  -->
<!DOCTYPE svg PUBLIC "-//W3C//DTD SVG 1.1//EN" "http://www.w3.org/Graphics/SVG/1.1/DTD/svg11.dtd">
<svg version="1.1" id="Layer_1" xmlns="http://www.w3.org/2000/svg" xmlns:xlink="http://www.w3.org/1999/xlink" x="0px" y="0px"
	 width="156.914px" height="41.924px" viewBox="-24 28.095 156.914 41.924" enable-background="new -24 28.095 156.914 41.924"
	 xml:space="preserve">
<g>
	<path d="M-1.119,66.738l-3.193,3.223L-24,53.525l19.688-16.436l3.193,3.252l-15.967,13.125L-1.119,66.738z"/>
	<path d="M28.559,69.492l-0.117-3.955c-1.602,1.582-3.228,2.725-4.878,3.428c-1.651,0.703-3.384,1.055-5.2,1.055
		c-1.68,0-3.116-0.216-4.307-0.645c-1.191-0.43-2.173-1.021-2.944-1.773c-0.772-0.751-1.338-1.635-1.699-2.65
		c-0.362-1.016-0.542-2.119-0.542-3.311c0-2.949,1.099-5.26,3.296-6.93s5.444-2.504,9.741-2.504h6.094v-2.578
		c0-1.739-0.557-3.13-1.67-4.175c-1.113-1.044-2.813-1.567-5.098-1.567c-1.66,0-3.296,0.186-4.907,0.557
		c-1.611,0.371-3.277,0.898-4.995,1.582v-4.6c0.645-0.234,1.362-0.464,2.153-0.688c0.791-0.224,1.626-0.425,2.505-0.601
		s1.797-0.317,2.754-0.425c0.957-0.107,1.923-0.161,2.9-0.161c1.777,0,3.379,0.195,4.805,0.586c1.425,0.391,2.632,0.986,3.618,1.787
		c0.986,0.801,1.743,1.807,2.271,3.018c0.527,1.211,0.791,2.637,0.791,4.278v20.273H28.559z M28.002,56.104h-6.475
		c-1.27,0-2.363,0.127-3.281,0.381c-0.918,0.254-1.67,0.615-2.256,1.084s-1.021,1.029-1.304,1.684
		c-0.283,0.655-0.425,1.393-0.425,2.213c0,0.566,0.088,1.108,0.264,1.625c0.176,0.518,0.458,0.978,0.85,1.377
		c0.391,0.4,0.898,0.719,1.523,0.953c0.625,0.234,1.387,0.352,2.285,0.352c1.172,0,2.515-0.356,4.028-1.07
		c1.513-0.713,3.11-1.84,4.79-3.383V56.104z"/>
	<path d="M42.65,40.078h4.541l0.205,4.746c0.859-1.015,1.689-1.86,2.49-2.534c0.801-0.674,1.586-1.216,2.358-1.626
		c0.771-0.41,1.557-0.698,2.358-0.864c0.801-0.166,1.631-0.249,2.49-0.249c3.027,0,5.318,0.894,6.871,2.681s2.328,4.478,2.328,8.072
		v19.189h-5.098V50.713c0-2.305-0.43-4.009-1.289-5.113c-0.859-1.103-2.139-1.655-3.838-1.655c-0.625,0-1.234,0.093-1.83,0.278
		c-0.597,0.186-1.216,0.508-1.861,0.967c-0.645,0.459-1.343,1.08-2.095,1.86c-0.752,0.781-1.597,1.758-2.534,2.93v19.512H42.65
		V40.078z"/>
	<path d="M85.658,32.285h-8.701v-4.189h13.857v37.149h8.76v4.248H75.99v-4.248h9.668V32.285z"/>
	<path d="M110.062,40.341l3.164-3.252l19.688,16.436l-19.688,16.436l-3.164-3.223l15.967-13.154L110.062,40.341z"/>
</g>
</svg>
